<!DOCTYPE svg PUBLIC "-//W3C//DTD SVG 20010904//EN" "http://www.w3.org/TR/2001/REC-SVG-20010904/DTD/svg10.dtd">
<svg version="1.0" xmlns="http://www.w3.org/2000/svg" width="1200px" height="1200px" viewBox="0 0 12000 12000" preserveAspectRatio="xMidYMid meet">
<ellipse stroke="#000" ry="6000" rx="6000" id="background1" cy="6000" cx="6000" stroke-width="0" fill="#ffffff"/>
<g id="layer1" fill="#a2c758" stroke="none">
 <path d="M5948 9901 c-44 -14 -84 -48 -102 -85 -14 -30 -16 -89 -16 -480 l0 -446 -1365 0 c-1206 0 -1370 -2 -1402 -15 -50 -21 -72 -42 -94 -90 -22 -48 -24 -94 -5 -138 8 -18 340 -477 738 -1022 l724 -990 -356 -5 -357 -5 -36 -25 c-66 -45 -96 -139 -68 -212 5 -13 282 -396 616 -853 l607 -830 -275 -5 c-260 -5 -277 -6 -304 -26 -66 -49 -95 -130 -70 -200 20 -58 1679 -2323 1724 -2354 51 -35 135 -35 186 0 45 31 1704 2295 1724 2354 25 70 -4 151 -70 200 -27 20 -44 21 -304 26 l-275 5 607 830 c334 457 611 840 616 853 13 32 11 109 -2 135 -15 28 -58 76 -84 90 -14 8 -132 14 -376 17 l-355 5 724 990 c398 545 730 1004 738 1022 19 44 17 90 -5 138 -22 48 -44 69 -94 90 -32 13 -196 15 -1402 15 l-1365 0 0 446 c0 498 1 493 -69 540 -41 26 -112 38 -153 25z m-118 -2022 l0 -661 -346 474 c-190 260 -360 488 -377 506 -60 63 -168 67 -234 9 -63 -55 -81 -138 -45 -207 10 -19 239 -338 510 -708 l492 -673 -2 -552 -3 -551 -187 256 c-103 141 -201 267 -218 281 -35 30 -85 42 -137 34 -110 -18 -176 -148 -125 -248 9 -19 165 -236 345 -482 l327 -447 0 -331 c0 -373 1 -380 73 -427 83 -55 210 -24 250 61 14 30 17 72 17 269 l0 234 267 364 c146 201 274 379 285 395 27 44 25 132 -5 176 -36 54 -82 79 -144 79 -94 0 -109 -13 -261 -220 l-137 -188 -3 473 -2 473 521 714 c287 392 529 728 537 748 18 44 11 123 -15 158 -68 92 -188 105 -268 29 -18 -18 -181 -234 -361 -482 -180 -247 -347 -476 -371 -509 l-43 -58 0 836 0 836 1175 0 c646 0 1175 -3 1175 -6 0 -3 -324 -449 -720 -990 -396 -541 -726 -997 -735 -1014 -8 -16 -15 -53 -15 -83 0 -60 23 -104 73 -141 27 -20 43 -21 392 -26 l363 -5 -490 -670 c-269 -368 -542 -741 -605 -828 -64 -87 -122 -176 -129 -198 -27 -76 6 -162 76 -203 32 -19 56 -21 302 -26 l267 -5 -647 -887 c-356 -488 -649 -887 -652 -887 -3 0 -296 399 -652 887 l-647 887 267 5 c246 5 270 7 302 26 70 41 103 127 76 203 -7 22 -65 111 -129 198 -63 87 -336 460 -605 828 l-490 670 363 5 c349 5 365 6 392 26 50 37 73 81 73 141 0 30 -7 67 -15 83 -9 17 -339 473 -735 1014 -396 541 -720 987 -720 990 0 3 529 6 1175 6 l1175 0 0 -661z"/>
 </g>
<g id="layer2" fill="#848484" stroke="none">
 <path d="M5545 11989 c-1052 -85 -2023 -418 -2875 -989 -1379 -922 -2319 -2368 -2590 -3982 -60 -359 -80 -615 -80 -1018 0 -622 67 -1107 235 -1691 457 -1586 1598 -2949 3090 -3689 707 -351 1425 -546 2239 -610 166 -13 706 -13 872 0 1072 84 2038 416 2904 997 1372 920 2310 2365 2580 3975 60 359 80 615 80 1018 0 622 -67 1107 -235 1691 -457 1586 -1598 2949 -3090 3689 -707 351 -1425 546 -2239 610 -149 12 -743 11 -891 -1z m935 -395 c1213 -103 2359 -601 3274 -1424 971 -874 1609 -2060 1800 -3345 80 -537 80 -1113 0 -1650 -312 -2102 -1797 -3854 -3830 -4519 -552 -180 -1121 -269 -1724 -269 -603 0 -1172 89 -1724 269 -2033 665 -3518 2417 -3830 4519 -80 539 -80 1111 0 1650 312 2102 1797 3854 3830 4519 698 228 1454 313 2204 250z"/>
 <path d="M5635 11244 c-22 -2 -92 -9 -155 -15 -1440 -134 -2771 -878 -3671 -2054 -559 -730 -916 -1619 -1028 -2555 -35 -291 -42 -779 -16 -1073 94 -1055 481 -2020 1140 -2842 187 -234 236 -275 320 -275 133 0 231 144 181 265 -8 18 -62 90 -120 160 -776 921 -1184 2075 -1153 3260 20 738 186 1403 514 2059 698 1396 2024 2374 3563 2630 290 48 441 60 780 60 319 1 441 -7 695 -44 841 -123 1642 -462 2295 -971 114 -90 151 -109 205 -109 142 0 235 147 176 277 -26 55 -171 171 -436 348 -241 160 -358 228 -603 349 -468 230 -983 394 -1492 475 -286 46 -394 53 -780 56 -206 1 -393 1 -415 -1z"/>
 <path d="M9707 9555 c-100 -35 -153 -153 -113 -250 8 -18 62 -90 120 -160 541 -642 897 -1379 1061 -2195 272 -1360 -49 -2768 -883 -3875 -258 -342 -614 -700 -952 -956 -595 -452 -1300 -765 -2030 -903 -510 -97 -1059 -111 -1565 -40 -847 117 -1666 461 -2325 975 -114 90 -151 109 -205 109 -140 0 -234 -148 -176 -277 14 -30 45 -61 113 -115 691 -546 1542 -918 2418 -1057 307 -49 407 -56 825 -56 417 0 495 5 800 50 1349 199 2570 929 3410 2040 565 746 903 1603 1021 2586 22 183 30 751 15 958 -83 1073 -475 2070 -1142 2901 -157 196 -216 255 -265 269 -51 14 -80 13 -127 -4z"/>
 </g>

</svg>