<!DOCTYPE svg PUBLIC "-//W3C//DTD SVG 20010904//EN" "http://www.w3.org/TR/2001/REC-SVG-20010904/DTD/svg10.dtd">
<svg version="1.0" xmlns="http://www.w3.org/2000/svg" width="1200px" height="1200px" viewBox="0 0 12000 12000" preserveAspectRatio="xMidYMid meet">
<ellipse stroke="#000" ry="6000" rx="6000" id="background1" cy="6000" cx="6000" stroke-width="0" fill="#ffffff"/>
<g id="layer1" fill="#a2c758" stroke="none">
 <path d="M3014 8721 c-44 -27 -71 -65 -79 -112 -10 -59 26 -125 84 -156 43 -22 51 -23 320 -23 l276 0 -33 -20 c-58 -36 -62 -58 -62 -370 l0 -280 -899 0 -898 0 -34 -23 c-18 -12 -39 -34 -46 -47 -16 -31 -17 -85 -2 -111 5 -11 221 -309 480 -662 l470 -642 -230 -5 -230 -5 -34 -33 c-37 -36 -49 -70 -40 -114 3 -15 184 -272 402 -570 l397 -543 -171 -5 c-178 -5 -197 -10 -230 -57 -19 -28 -27 -77 -16 -106 13 -34 1094 -1514 1132 -1549 38 -36 101 -38 148 -5 17 12 281 364 586 782 549 752 555 760 555 808 0 40 -5 53 -34 85 l-34 37 -175 5 -174 5 274 375 c151 206 279 380 286 387 9 9 38 -25 124 -143 l112 -154 -152 -1 c-90 0 -166 -5 -187 -12 -46 -16 -80 -68 -80 -122 0 -40 30 -84 551 -796 302 -415 563 -766 579 -781 39 -36 88 -45 133 -23 28 13 141 162 587 772 304 415 559 769 568 785 27 54 -1 126 -63 161 -12 7 -88 14 -183 17 l-163 5 93 127 c51 70 97 126 101 125 4 -1 126 -164 271 -362 l263 -360 -174 -5 -175 -5 -34 -37 c-29 -32 -34 -45 -34 -85 0 -47 6 -56 555 -808 305 -418 569 -770 586 -783 47 -32 110 -30 148 6 47 43 1122 1522 1132 1556 14 48 -7 104 -50 133 -21 15 -56 19 -197 23 l-170 5 397 543 c236 322 399 554 403 573 7 37 -12 86 -48 119 -27 25 -29 25 -257 30 l-229 5 469 643 c259 353 475 651 481 661 17 33 12 96 -11 125 -46 59 2 56 -974 56 l-895 0 0 280 c0 312 -4 334 -61 369 l-33 20 322 3 c307 3 322 4 349 24 98 73 97 203 -1 263 l-33 21 -2989 0 c-2910 0 -2990 -1 -3020 -19z m2896 -396 l0 -105 -910 0 -909 0 -35 -31 c-39 -34 -55 -86 -39 -128 5 -14 53 -85 106 -158 53 -73 97 -135 97 -138 0 -3 -99 -5 -220 -5 l-220 0 0 281 c0 312 -4 333 -64 370 -30 19 -11 19 1082 19 l1112 0 0 -105z m2374 86 c-60 -37 -64 -58 -64 -370 l0 -281 -191 0 -191 0 35 48 c179 246 177 242 177 293 0 42 -5 53 -35 84 l-36 35 -909 0 -910 0 0 105 0 105 1078 0 c1058 0 1076 0 1046 -19z m-2374 -853 c0 -227 -4 -408 -8 -402 -5 5 -100 135 -212 289 -111 154 -220 297 -241 318 -33 32 -44 37 -85 37 -41 0 -51 -5 -85 -39 -34 -33 -39 -45 -39 -83 0 -53 -26 -14 384 -573 l286 -390 0 -349 0 -348 -122 166 c-124 171 -151 196 -210 196 -79 0 -146 -92 -119 -163 6 -15 110 -162 231 -328 l220 -302 0 -224 0 -225 39 -39 c32 -32 46 -39 77 -39 22 0 53 9 71 20 56 33 63 61 63 232 l0 154 185 253 c178 244 185 255 185 301 0 103 -117 164 -197 102 -11 -9 -55 -64 -97 -121 l-76 -104 0 296 0 297 338 462 c186 255 344 473 350 485 18 33 14 84 -8 121 -36 58 -117 76 -175 38 -11 -8 -128 -161 -259 -340 -131 -179 -240 -326 -242 -326 -2 0 -4 234 -4 520 l0 520 756 0 c416 0 754 -4 752 -8 -1 -5 -216 -300 -477 -656 -507 -694 -502 -686 -467 -754 33 -63 47 -66 296 -72 l227 -5 -399 -545 c-393 -538 -398 -545 -398 -592 0 -41 5 -54 34 -86 l34 -37 174 -5 175 -5 -416 -568 c-393 -538 -416 -567 -432 -550 -9 10 -198 266 -419 568 l-401 550 168 5 c112 3 176 9 191 18 33 19 62 71 62 114 0 39 30 -3 -549 788 l-252 345 231 5 232 5 34 37 c29 32 34 45 34 86 0 47 -5 54 -471 692 -259 355 -476 651 -481 658 -8 9 143 12 751 12 l761 0 0 -412z m-2390 -453 c0 -223 -2 -405 -4 -405 -3 0 -99 130 -215 288 -116 158 -224 301 -241 317 -26 25 -40 30 -80 30 -42 0 -54 -5 -84 -34 -44 -43 -54 -90 -29 -139 10 -21 161 -232 336 -471 l317 -433 0 -347 c-1 -314 -2 -344 -16 -326 -9 11 -60 82 -115 157 -55 76 -110 145 -122 153 -12 8 -43 15 -69 15 -39 0 -54 -6 -82 -31 -39 -34 -55 -86 -39 -129 5 -14 107 -159 226 -322 l217 -296 0 -217 c0 -234 4 -253 56 -294 37 -29 111 -29 149 1 47 36 55 73 55 235 l0 148 186 255 186 255 -5 48 c-6 68 -46 108 -114 114 -62 6 -83 -10 -179 -141 l-74 -100 0 296 0 297 332 453 c182 249 339 467 349 483 34 54 18 121 -37 164 -31 25 -92 28 -133 7 -16 -9 -120 -141 -265 -340 -131 -179 -240 -326 -242 -326 -2 0 -4 234 -4 520 l0 520 317 -2 317 -3 213 -290 c118 -159 216 -296 219 -302 3 -7 -22 -51 -57 -98 l-63 -85 -103 0 c-114 0 -142 -10 -169 -61 -26 -51 -18 -97 27 -161 l41 -58 -96 -132 c-83 -112 -96 -136 -96 -170 0 -47 20 -89 54 -112 22 -14 57 -16 241 -16 173 0 217 -3 221 -14 3 -7 -163 -243 -382 -542 -235 -320 -392 -543 -398 -565 -11 -43 3 -85 41 -121 23 -22 33 -23 202 -28 l178 -5 -413 -565 c-227 -311 -418 -565 -425 -565 -6 0 -197 254 -424 565 l-413 565 180 5 180 5 28 32 c33 37 46 87 32 123 -6 14 -188 268 -405 565 l-395 540 235 5 235 5 35 39 c32 35 35 43 31 85 -4 43 -41 95 -481 698 -262 358 -477 654 -477 657 0 3 340 6 755 6 l755 0 0 -405z m4700 0 c0 -223 -2 -405 -4 -405 -2 0 -103 137 -226 304 -239 328 -256 344 -328 332 -68 -11 -121 -91 -102 -156 5 -16 155 -230 334 -475 l326 -446 -2 -345 -3 -345 -110 152 c-60 83 -121 160 -134 170 -16 13 -40 19 -72 19 -82 0 -141 -71 -124 -148 3 -16 105 -163 225 -328 l219 -299 1 -213 c0 -232 5 -261 55 -300 38 -30 112 -30 149 -1 50 39 56 65 56 231 l0 153 136 185 c238 324 234 318 234 368 0 38 -5 50 -39 83 -34 34 -45 39 -84 39 -58 0 -84 -22 -167 -137 -35 -49 -67 -92 -72 -97 -4 -6 -8 123 -8 286 l0 295 307 419 c418 572 396 539 390 593 -10 87 -101 136 -182 99 -16 -7 -98 -110 -213 -267 -102 -141 -212 -291 -244 -334 l-58 -79 0 526 0 526 755 0 c415 0 755 -3 755 -6 0 -3 -215 -299 -477 -657 -440 -603 -477 -655 -481 -698 -4 -42 -1 -50 31 -85 l35 -39 235 -5 235 -5 -399 -545 c-219 -300 -401 -557 -404 -572 -9 -37 10 -90 41 -119 25 -23 33 -24 204 -29 l178 -5 -413 -565 c-227 -311 -418 -565 -425 -565 -6 0 -197 254 -424 565 l-413 565 178 5 c169 5 179 6 202 28 38 36 52 78 41 121 -6 22 -158 237 -382 544 l-372 507 23 35 22 35 183 0 c200 0 218 4 248 61 29 57 19 100 -44 186 -32 43 -67 92 -79 109 l-22 31 54 74 c30 41 57 89 61 107 8 41 -10 85 -48 117 -28 24 -35 25 -167 25 l-137 0 -48 65 -47 64 238 326 237 325 283 0 283 0 0 -405z"/>
 </g>
<g id="layer2" fill="#848484" stroke="none">
 <path d="M5510 11989 c-425 -28 -763 -89 -1201 -214 -751 -217 -1487 -603 -2099 -1104 -1142 -934 -1900 -2227 -2140 -3653 -51 -302 -70 -583 -70 -1018 0 -682 56 -1102 225 -1691 560 -1945 2139 -3524 4084 -4084 589 -169 1009 -225 1691 -225 435 0 716 19 1018 70 1140 192 2202 716 3062 1512 982 908 1631 2101 1850 3400 51 302 70 583 70 1018 0 435 -19 716 -70 1018 -192 1140 -716 2202 -1512 3062 -908 982 -2101 1631 -3400 1850 -313 52 -589 71 -1048 69 -184 -1 -391 -6 -460 -10z m970 -405 c1934 -164 3660 -1335 4530 -3074 324 -647 510 -1308 576 -2040 35 -387 18 -889 -42 -1295 -267 -1800 -1405 -3370 -3034 -4185 -795 -398 -1620 -593 -2510 -593 -890 0 -1715 195 -2510 593 -1629 815 -2767 2385 -3034 4185 -80 539 -80 1111 0 1650 267 1800 1405 3370 3034 4185 935 468 1948 662 2990 574z"/>
 <path d="M5635 11254 c-22 -2 -92 -9 -155 -15 -839 -78 -1667 -371 -2380 -844 -584 -387 -1108 -911 -1495 -1495 -496 -748 -782 -1583 -855 -2495 -15 -192 -13 -661 5 -858 99 -1116 532 -2143 1258 -2985 88 -102 123 -128 183 -138 147 -23 276 135 220 271 -8 18 -62 90 -120 160 -776 921 -1184 2075 -1153 3260 20 738 186 1403 514 2059 697 1392 2015 2365 3553 2620 290 48 441 60 780 60 319 1 441 -7 695 -44 841 -123 1642 -462 2295 -971 116 -91 151 -109 207 -109 89 1 186 81 198 164 16 104 -10 148 -152 262 -125 99 -459 324 -616 414 -451 258 -995 466 -1502 575 -399 86 -604 107 -1065 110 -206 1 -393 1 -415 -1z"/>
 <path d="M9706 9565 c-104 -37 -163 -162 -122 -260 8 -18 62 -90 120 -160 541 -642 897 -1379 1061 -2195 272 -1360 -49 -2768 -883 -3875 -372 -494 -841 -916 -1380 -1242 -930 -564 -2073 -798 -3157 -647 -847 117 -1666 461 -2325 975 -57 45 -119 88 -137 95 -158 66 -326 -114 -254 -272 28 -62 202 -200 487 -387 701 -459 1457 -730 2329 -834 191 -22 879 -26 1070 -5 1115 122 2057 523 2895 1231 160 135 466 441 601 601 698 826 1094 1745 1225 2841 22 183 30 751 15 958 -83 1073 -475 2069 -1142 2901 -158 197 -225 265 -274 279 -52 14 -81 13 -129 -4z"/>
 </g>

</svg>