<!DOCTYPE svg PUBLIC "-//W3C//DTD SVG 20010904//EN" "http://www.w3.org/TR/2001/REC-SVG-20010904/DTD/svg10.dtd">
<svg version="1.0" xmlns="http://www.w3.org/2000/svg" width="1200px" height="1200px" viewBox="0 0 12000 12000" preserveAspectRatio="xMidYMid meet">
<ellipse stroke="#000" ry="6000" rx="6000" id="background1" cy="6000" cx="6000" stroke-width="0" fill="#ffffff"/>
<g id="layer1" fill="#a2c758" stroke="none">
 <path d="M2865 9170 c-10 -16 155 -174 238 -228 192 -125 427 -177 665 -148 l62 8 0 -260 0 -259 -72 -7 c-205 -20 -423 -85 -624 -186 -188 -95 -303 -179 -464 -340 -159 -159 -244 -274 -339 -460 -144 -284 -212 -603 -196 -925 31 -619 159 -1197 401 -1813 69 -175 251 -540 341 -683 266 -423 560 -683 869 -771 103 -29 285 -31 389 -4 100 25 276 114 375 189 163 124 364 354 501 576 l57 91 31 -67 c60 -126 163 -308 257 -448 264 -397 546 -629 852 -701 96 -23 301 -15 397 16 164 52 305 142 464 295 132 127 199 207 303 360 102 150 174 275 265 460 l76 156 71 -69 c132 -129 245 -203 379 -249 89 -31 246 -42 339 -24 308 61 629 372 878 853 293 568 482 1302 483 1883 0 275 -37 445 -147 670 -80 163 -164 280 -287 404 -213 214 -486 360 -778 415 -46 9 -98 16 -117 16 l-34 0 0 168 0 168 50 49 c28 28 62 66 76 86 23 34 29 37 106 47 111 16 262 70 360 128 103 61 249 203 314 303 57 90 114 222 117 271 l2 35 -118 0 -119 0 -21 -50 c-44 -102 -91 -172 -167 -247 -65 -63 -96 -85 -182 -127 -107 -52 -217 -81 -307 -81 -73 0 -96 -15 -155 -99 -98 -140 -224 -236 -381 -288 -71 -24 -95 -27 -220 -28 -122 0 -150 3 -213 24 l-73 24 83 44 c234 125 427 326 533 555 39 86 88 246 80 265 -3 11 -32 13 -121 11 l-117 -3 -23 -68 c-59 -176 -168 -333 -306 -442 -355 -280 -846 -271 -1198 24 -71 58 -106 65 -181 32 -24 -11 -82 -27 -129 -37 -201 -40 -420 15 -592 151 -78 61 -140 142 -195 253 l-45 92 -114 0 c-92 0 -116 -3 -120 -15 -6 -14 18 -92 50 -167 l16 -37 -46 -27 c-188 -110 -459 -146 -679 -89 -151 38 -260 94 -393 202 -30 24 -65 46 -79 49 -16 4 -61 -5 -126 -27 -96 -32 -110 -34 -237 -34 -122 0 -144 3 -222 29 -48 15 -120 48 -159 72 l-71 44 -153 0 c-93 0 -156 -4 -160 -10z m2593 -533 c20 -16 28 -28 21 -33 -26 -16 -218 13 -304 46 l-29 11 89 49 90 48 50 -47 c28 -26 65 -59 83 -74z m-1159 3 c117 -43 230 -62 386 -65 l140 -2 81 -56 c156 -105 313 -151 519 -151 148 0 255 19 358 63 27 12 51 21 53 21 2 0 4 -38 4 -84 l0 -83 -62 -7 c-238 -27 -514 -134 -697 -271 -40 -30 -74 -55 -76 -55 -1 0 -43 25 -91 56 -233 146 -515 245 -776 270 l-68 7 0 232 0 232 76 -39 c41 -22 110 -53 153 -68z m1947 -377 c-2 -2 -40 1 -85 7 l-81 12 0 72 0 73 83 9 82 9 3 -89 c1 -49 1 -91 -2 -93z m326 88 c166 -89 341 -131 547 -131 l126 0 50 -36 c162 -116 347 -174 556 -174 147 0 260 22 392 75 15 6 17 -1 17 -77 l0 -85 -72 -6 c-216 -18 -526 -144 -706 -286 l-51 -41 -86 56 c-46 30 -132 78 -189 105 -81 38 -120 64 -173 115 -110 106 -229 190 -365 257 l-126 62 -1 103 c-1 56 1 102 3 102 3 0 37 -18 78 -39z m-2742 -488 l0 -178 -370 -370 -370 -371 0 -46 c0 -79 68 -135 146 -121 21 4 105 81 312 286 l282 281 0 -354 0 -354 -209 -211 c-230 -231 -240 -247 -206 -318 22 -47 59 -70 113 -70 42 0 47 3 173 129 l129 129 0 -359 0 -358 34 -34 c30 -30 41 -34 84 -34 54 0 93 26 112 75 6 16 10 255 10 628 l0 601 228 -226 c125 -124 236 -228 247 -232 19 -6 20 -15 20 -263 1 -273 13 -411 61 -698 59 -353 181 -805 302 -1111 l21 -51 -63 -109 c-260 -457 -539 -728 -816 -795 -295 -71 -624 132 -919 566 -338 497 -612 1249 -725 1985 -38 249 -49 409 -43 629 6 215 24 317 87 496 162 456 536 815 1004 964 90 29 277 68 334 70 l22 1 0 -177z m327 166 c229 -31 483 -128 667 -254 98 -67 234 -184 290 -250 l49 -57 -75 -76 c-96 -99 -152 -167 -223 -272 -73 -107 -176 -316 -212 -432 l-28 -88 -277 278 -278 277 0 442 c0 244 2 443 4 443 3 0 40 -5 83 -11z m1683 -82 l0 -94 -87 -33 c-103 -38 -265 -118 -343 -168 l-54 -34 -78 83 c-42 46 -77 86 -78 89 0 11 128 90 211 130 115 56 309 111 417 119 9 1 12 -24 12 -92z m358 72 l52 -10 0 -40 c0 -45 0 -45 -97 -54 l-73 -6 0 65 0 66 33 -6 c17 -3 56 -10 85 -15z m52 -517 l0 -177 -360 -360 c-197 -197 -364 -372 -371 -387 -18 -43 -3 -92 38 -128 33 -29 41 -32 86 -27 l49 4 272 272 c149 149 274 271 279 271 4 0 7 -158 7 -352 l0 -352 -210 -211 c-202 -203 -210 -212 -210 -251 0 -69 51 -123 118 -124 49 0 67 12 190 133 l112 112 0 -338 c0 -367 1 -373 56 -416 31 -25 83 -27 124 -6 63 33 60 -1 60 679 l0 620 233 -232 233 -232 47 0 c55 0 91 20 113 61 18 36 18 73 0 107 -8 15 -152 164 -320 332 l-306 305 0 437 0 438 29 0 c57 0 209 -31 321 -66 580 -180 1004 -679 1091 -1285 16 -114 13 -391 -6 -574 -103 -990 -528 -2054 -1006 -2522 -137 -135 -281 -224 -414 -258 -286 -72 -607 112 -895 515 -307 429 -579 1111 -714 1790 -66 333 -89 541 -90 810 0 163 3 214 22 308 110 548 464 979 974 1181 125 49 325 98 416 100 l32 1 0 -178z m2010 55 l0 -122 -175 -175 c-96 -96 -176 -172 -179 -170 -2 3 -32 43 -66 90 -35 47 -98 123 -141 170 l-77 86 71 46 c88 58 219 119 312 147 86 26 191 49 228 50 l27 1 0 -123z m349 108 c507 -97 907 -502 996 -1009 55 -321 -29 -918 -205 -1446 -158 -475 -359 -841 -590 -1070 -171 -171 -275 -225 -435 -224 -99 0 -160 19 -272 85 -57 34 -235 201 -267 251 -18 27 -17 30 28 155 204 570 318 1169 319 1678 1 281 -32 470 -119 688 l-36 90 113 113 114 114 5 -301 5 -301 37 -34 c32 -28 45 -34 84 -34 39 0 51 5 80 34 l34 34 0 148 0 148 208 -207 208 -207 47 0 c84 0 145 81 117 156 -6 16 -139 157 -296 314 l-284 285 0 278 c0 230 2 277 14 277 8 0 50 -7 95 -15z"/>
 </g>
<g id="layer2" fill="#848484" stroke="none">
 <path d="M5510 11989 c-425 -28 -763 -89 -1201 -214 -751 -217 -1487 -603 -2099 -1104 -1142 -934 -1900 -2227 -2140 -3653 -51 -302 -70 -583 -70 -1018 0 -682 56 -1102 225 -1691 560 -1945 2139 -3524 4084 -4084 589 -169 1009 -225 1691 -225 435 0 716 19 1018 70 1140 192 2202 716 3062 1512 982 908 1631 2101 1850 3400 51 302 70 583 70 1018 0 435 -19 716 -70 1018 -192 1140 -716 2202 -1512 3062 -908 982 -2101 1631 -3400 1850 -313 52 -589 71 -1048 69 -184 -1 -391 -6 -460 -10z m970 -405 c1934 -164 3660 -1335 4530 -3074 324 -647 510 -1308 576 -2040 35 -387 18 -889 -42 -1295 -267 -1800 -1405 -3370 -3034 -4185 -795 -398 -1620 -593 -2510 -593 -890 0 -1715 195 -2510 593 -1629 815 -2767 2385 -3034 4185 -80 539 -80 1111 0 1650 267 1800 1405 3370 3034 4185 935 468 1948 662 2990 574z"/>
 <path d="M5635 11254 c-22 -2 -92 -9 -155 -15 -839 -78 -1667 -371 -2380 -844 -584 -387 -1108 -911 -1495 -1495 -496 -748 -782 -1583 -855 -2495 -15 -192 -13 -661 5 -858 99 -1116 532 -2143 1258 -2985 88 -102 123 -128 183 -138 147 -23 276 135 220 271 -8 18 -62 90 -120 160 -776 921 -1184 2075 -1153 3260 20 738 186 1403 514 2059 697 1392 2015 2365 3553 2620 290 48 441 60 780 60 319 1 441 -7 695 -44 841 -123 1642 -462 2295 -971 116 -91 151 -109 207 -109 89 1 186 81 198 164 16 104 -10 148 -152 262 -125 99 -459 324 -616 414 -451 258 -995 466 -1502 575 -399 86 -604 107 -1065 110 -206 1 -393 1 -415 -1z"/>
 <path d="M9706 9565 c-104 -37 -163 -162 -122 -260 8 -18 62 -90 120 -160 541 -642 897 -1379 1061 -2195 272 -1360 -49 -2768 -883 -3875 -372 -494 -841 -916 -1380 -1242 -930 -564 -2073 -798 -3157 -647 -847 117 -1666 461 -2325 975 -57 45 -119 88 -137 95 -158 66 -326 -114 -254 -272 28 -62 202 -200 487 -387 701 -459 1457 -730 2329 -834 191 -22 879 -26 1070 -5 1115 122 2057 523 2895 1231 160 135 466 441 601 601 698 826 1094 1745 1225 2841 22 183 30 751 15 958 -83 1073 -475 2069 -1142 2901 -158 197 -225 265 -274 279 -52 14 -81 13 -129 -4z"/>
 </g>

</svg>