<svg id="svg" version="1.1" width="400" height="400" xmlns="http://www.w3.org/2000/svg" xmlns:xlink="http://www.w3.org/1999/xlink" style="display: block;"><g id="svgg"><path id="path0" d="M184.833 0.362 C 92.692 7.784,17.793 75.919,2.680 166.066 C -20.232 302.723,97.277 420.232,233.934 397.320 C 317.038 383.388,383.388 317.038,397.320 233.934 C 416.977 116.688,333.208 9.633,214.535 0.337 C 209.577 -0.052,189.758 -0.035,184.833 0.362 M216.000 13.533 C 301.950 20.802,372.450 87.065,385.134 172.500 C 401.884 285.330,314.095 387.086,200.000 387.086 C 96.712 387.086,12.914 303.288,12.914 200.000 C 12.914 90.473,106.772 4.295,216.000 13.533 M187.833 25.206 C 154.521 28.462,129.360 36.914,104.333 53.252 C 88.649 63.491,85.756 66.717,87.963 71.500 C 90.291 76.543,94.389 76.610,100.673 71.706 C 152.974 30.895,226.807 26.474,283.408 60.763 C 369.421 112.870,388.488 228.046,323.816 304.846 C 318.480 311.183,317.936 314.310,321.630 317.418 C 325.909 321.018,328.661 319.597,336.635 309.667 C 386.598 247.444,388.073 158.088,340.180 94.833 C 310.460 55.580,268.715 31.807,218.954 25.797 C 214.737 25.288,191.509 24.846,187.833 25.206 M72.033 81.386 C 69.387 82.147,58.738 95.413,51.518 106.944 C 13.004 168.454,16.550 248.661,60.312 305.833 C 102.072 360.391,170.191 385.553,237.167 371.161 C 262.248 365.771,288.637 353.442,307.775 338.173 C 313.213 333.835,314.270 329.995,310.920 326.752 C 307.590 323.529,304.990 323.875,299.327 328.294 C 244.150 371.349,165.838 373.616,108.333 333.824 C 28.875 278.841,14.069 168.917,76.184 95.154 C 79.946 90.687,80.671 89.435,80.659 87.427 C 80.634 83.087,76.409 80.128,72.033 81.386 " stroke="none" fill="#848484" fill-rule="evenodd"></path><path id="path1" d="M141.000 106.030 C 111.343 109.844,89.367 134.368,85.179 168.323 C 82.169 192.732,93.303 222.200,113.317 242.795 C 117.687 247.291,198.983 321.214,199.411 321.079 C 200.178 320.839,283.063 246.510,286.522 242.960 C 320.460 208.137,324.696 157.944,296.404 125.864 C 270.823 96.857,223.550 99.665,200.890 131.538 C 199.314 133.755,199.488 133.779,197.584 131.078 C 185.016 113.251,162.466 103.269,141.000 106.030 M157.167 119.491 C 175.669 123.340,186.452 133.681,196.194 156.917 C 197.827 160.813,199.245 164.000,199.345 164.000 C 199.445 164.000,200.932 160.662,202.650 156.583 C 210.162 138.746,216.740 130.706,229.000 124.375 C 261.521 107.583,296.617 129.458,301.825 169.767 C 304.368 189.448,295.086 214.422,278.619 232.201 C 274.528 236.619,276.209 235.092,235.114 271.745 L 199.395 303.604 164.114 271.598 C 116.688 228.575,117.579 229.469,110.484 217.806 C 94.908 192.205,93.725 165.254,107.202 143.056 C 118.115 125.081,138.293 115.564,157.167 119.491 M151.203 132.354 C 129.200 134.907,112.386 152.661,110.814 175.000 C 110.364 181.406,113.041 184.816,118.054 184.222 C 121.935 183.763,123.240 181.910,123.860 175.978 C 125.696 158.430,137.079 147.031,154.597 145.198 C 160.893 144.540,163.020 142.809,162.993 138.367 C 162.962 133.367,159.164 131.430,151.203 132.354 " stroke="none" fill="#a2c758" fill-rule="evenodd"></path></g></svg>