<?xml version="1.0" ?><!DOCTYPE svg  PUBLIC '-//W3C//DTD SVG 1.1//EN'  'http://www.w3.org/Graphics/SVG/1.1/DTD/svg11.dtd'><svg enable-background="new 0 0 100 100" height="100px" id="Layer_1" version="1.1" viewBox="0 0 100 100" width="100px" xml:space="preserve" xmlns="http://www.w3.org/2000/svg" xmlns:xlink="http://www.w3.org/1999/xlink"><g><circle cx="50" cy="50" fill="#4A74A5" r="45"/><path clip-rule="evenodd" d="M42.275,38.826c0.206-0.547,0.6-0.885,1.082-1.123   c0.926-0.455,1.925-0.594,2.937-0.574c1.438,0.029,2.875,0.123,4.312,0.184c0.646,0.027,1.289,0.055,1.9,0.301   c0.914,0.367,1.397,1.062,1.42,2.021c0.018,0.781-0.094,1.564-0.12,2.348c-0.058,1.67-0.13,3.338-0.126,5.006   c0.002,0.527,0.224,1.057,0.363,1.578c0.04,0.148,0.139,0.281,0.229,0.41c0.344,0.498,0.464,0.494,0.957,0.182   c0.916-0.58,1.592-1.373,2.212-2.252c0.839-1.188,1.587-2.424,2.209-3.734c0.619-1.307,1.243-2.613,1.825-3.939   c0.289-0.662,0.735-0.941,1.451-0.938c2.696,0.018,5.394,0.016,8.09,0.004c0.866-0.004,1.485,0.736,1.288,1.586   c-0.206,0.896-0.61,1.699-1.086,2.469c-1.339,2.172-2.824,4.238-4.52,6.15c-0.596,0.672-1.132,1.389-1.408,2.262   c-0.3,0.951-0.109,1.785,0.599,2.492c1.255,1.25,2.542,2.469,3.764,3.752c0.722,0.762,1.361,1.604,1.995,2.441   c0.408,0.535,0.668,1.152,0.594,1.855c-0.08,0.783-0.479,1.189-1.264,1.23c-1.519,0.08-3.042,0.139-4.562,0.207   c-0.886,0.041-1.77,0.088-2.655,0.125c-0.707,0.029-1.337-0.229-1.937-0.572c-0.954-0.547-1.751-1.291-2.535-2.049   c-0.812-0.783-1.565-1.615-2.171-2.576c-0.384-0.609-1.455-0.941-2.129-0.689c-0.522,0.195-0.771,0.619-0.824,1.148   c-0.088,0.871-0.136,1.748-0.218,2.619c-0.1,1.074-0.773,1.74-1.843,1.885c-2.107,0.281-4.198,0.176-6.277-0.23   c-1.525-0.301-2.843-1.035-4.099-1.926c-1.719-1.215-3.18-2.701-4.548-4.277c-0.709-0.82-1.331-1.721-1.942-2.621   c-1.947-2.861-3.789-5.789-5.402-8.855c-0.773-1.469-1.547-2.939-1.955-4.564c-0.092-0.365-0.14-0.742-0.214-1.113   c-0.036-0.184,0.032-0.32,0.2-0.373c0.438-0.135,0.876-0.338,1.321-0.355c1.43-0.061,2.86-0.053,4.29-0.062   c0.618-0.002,1.237,0.061,1.854,0.027c0.829-0.043,1.383,0.34,1.741,1.033c0.357,0.695,0.665,1.418,1.005,2.123   c1.218,2.533,2.537,5.006,4.251,7.244c0.254,0.33,0.631,0.592,0.999,0.803c0.438,0.252,0.823,0.117,1.092-0.312   c0.315-0.512,0.464-1.084,0.474-1.684c0.026-1.689,0.076-3.379,0.058-5.066c-0.021-1.742-0.886-2.902-2.524-3.529   C42.386,38.879,42.344,38.857,42.275,38.826z" fill="#FFFFFF" fill-rule="evenodd"/></g></svg>