<svg id="svg" version="1.1" width="400" height="400" xmlns="http://www.w3.org/2000/svg" xmlns:xlink="http://www.w3.org/1999/xlink" style="display: block;"><g id="svgg"><path id="path0" d="M184.833 0.362 C 92.692 7.784,17.793 75.919,2.680 166.066 C -20.232 302.723,97.277 420.232,233.934 397.320 C 317.038 383.388,383.388 317.038,397.320 233.934 C 416.977 116.688,333.208 9.633,214.535 0.337 C 209.577 -0.052,189.758 -0.035,184.833 0.362 M216.000 13.533 C 301.950 20.802,372.450 87.065,385.134 172.500 C 401.884 285.330,314.095 387.086,200.000 387.086 C 96.712 387.086,12.914 303.288,12.914 200.000 C 12.914 90.473,106.772 4.295,216.000 13.533 M187.833 25.206 C 154.521 28.462,129.360 36.914,104.333 53.252 C 88.649 63.491,85.756 66.717,87.963 71.500 C 90.291 76.543,94.389 76.610,100.673 71.706 C 152.974 30.895,226.807 26.474,283.408 60.763 C 369.421 112.870,388.488 228.046,323.816 304.846 C 318.480 311.183,317.936 314.310,321.630 317.418 C 325.909 321.018,328.661 319.597,336.635 309.667 C 386.598 247.444,388.073 158.088,340.180 94.833 C 310.460 55.580,268.715 31.807,218.954 25.797 C 214.737 25.288,191.509 24.846,187.833 25.206 M72.033 81.386 C 69.387 82.147,58.738 95.413,51.518 106.944 C 13.004 168.454,16.550 248.661,60.312 305.833 C 102.072 360.391,170.191 385.553,237.167 371.161 C 262.248 365.771,288.637 353.442,307.775 338.173 C 313.213 333.835,314.270 329.995,310.920 326.752 C 307.590 323.529,304.990 323.875,299.327 328.294 C 244.150 371.349,165.838 373.616,108.333 333.824 C 28.875 278.841,14.069 168.917,76.184 95.154 C 79.946 90.687,80.671 89.435,80.659 87.427 C 80.634 83.087,76.409 80.128,72.033 81.386 " stroke="none" fill="#848484" fill-rule="evenodd"></path><path id="path1" d="M173.833 148.183 C 66.160 195.411,73.667 191.902,73.667 195.000 C 73.667 197.981,71.000 196.659,122.667 219.282 C 148.608 230.642,170.246 240.124,170.750 240.355 L 171.667 240.774 171.667 262.979 C 171.667 287.358,171.561 286.078,173.670 287.169 C 176.587 288.677,176.358 288.855,193.332 271.855 C 201.489 263.685,208.298 257.000,208.463 257.000 C 208.627 257.000,223.133 263.300,240.698 271.000 C 273.144 285.223,273.788 285.472,275.663 284.502 C 277.847 283.373,277.667 291.422,277.667 194.892 L 277.667 107.267 276.533 106.133 C 274.283 103.883,282.526 100.508,173.833 148.183 M258.949 121.159 C 258.335 121.979,238.783 147.301,215.500 177.429 L 173.167 232.207 168.091 230.020 C 165.300 228.817,163.012 227.757,163.008 227.663 C 163.004 227.569,169.026 219.694,176.392 210.163 C 183.757 200.632,192.307 189.561,195.392 185.561 L 201.000 178.289 201.000 176.526 C 201.000 173.235,197.927 171.355,195.100 172.917 C 194.404 173.301,187.375 182.133,174.475 198.833 C 163.713 212.767,154.815 224.139,154.703 224.106 C 154.015 223.901,88.791 195.230,88.608 195.052 C 88.441 194.890,259.322 119.713,259.949 119.674 C 260.012 119.670,259.562 120.338,258.949 121.159 M269.251 236.151 L 269.167 274.301 225.253 255.067 C 197.984 243.124,181.393 235.686,181.481 235.445 C 181.560 235.232,201.321 209.561,225.395 178.399 L 269.167 121.741 269.251 159.870 C 269.298 180.842,269.298 215.168,269.251 236.151 M204.472 233.129 C 201.751 234.343,201.065 237.798,203.133 239.867 C 206.336 243.069,211.645 239.452,209.894 235.260 C 209.038 233.212,206.512 232.219,204.472 233.129 M190.167 248.835 C 195.483 251.168,199.865 253.104,199.904 253.137 C 199.943 253.170,195.405 257.764,189.820 263.346 L 179.667 273.496 179.667 258.879 C 179.667 247.319,179.754 244.297,180.083 244.428 C 180.313 244.519,184.850 246.502,190.167 248.835 " stroke="none" fill="#a2c758" fill-rule="evenodd"></path></g></svg>