<svg id="svg" version="1.1" width="400" height="400" xmlns="http://www.w3.org/2000/svg" xmlns:xlink="http://www.w3.org/1999/xlink" style="display: block;"><g id="svgg"><path id="path0" d="M184.833 0.362 C 92.692 7.784,17.793 75.919,2.680 166.066 C -20.232 302.723,97.277 420.232,233.934 397.320 C 317.038 383.388,383.388 317.038,397.320 233.934 C 416.977 116.688,333.208 9.633,214.535 0.337 C 209.577 -0.052,189.758 -0.035,184.833 0.362 M216.000 13.533 C 301.950 20.802,372.450 87.065,385.134 172.500 C 401.884 285.330,314.095 387.086,200.000 387.086 C 96.712 387.086,12.914 303.288,12.914 200.000 C 12.914 90.473,106.772 4.295,216.000 13.533 M187.833 25.206 C 154.521 28.462,129.360 36.914,104.333 53.252 C 88.649 63.491,85.756 66.717,87.963 71.500 C 90.291 76.543,94.389 76.610,100.673 71.706 C 152.974 30.895,226.807 26.474,283.408 60.763 C 369.421 112.870,388.488 228.046,323.816 304.846 C 318.480 311.183,317.936 314.310,321.630 317.418 C 325.909 321.018,328.661 319.597,336.635 309.667 C 386.598 247.444,388.073 158.088,340.180 94.833 C 310.460 55.580,268.715 31.807,218.954 25.797 C 214.737 25.288,191.509 24.846,187.833 25.206 M72.033 81.386 C 69.387 82.147,58.738 95.413,51.518 106.944 C 13.004 168.454,16.550 248.661,60.312 305.833 C 102.072 360.391,170.191 385.553,237.167 371.161 C 262.248 365.771,288.637 353.442,307.775 338.173 C 313.213 333.835,314.270 329.995,310.920 326.752 C 307.590 323.529,304.990 323.875,299.327 328.294 C 244.150 371.349,165.838 373.616,108.333 333.824 C 28.875 278.841,14.069 168.917,76.184 95.154 C 79.946 90.687,80.671 89.435,80.659 87.427 C 80.634 83.087,76.409 80.128,72.033 81.386 " stroke="none" fill="#848484" fill-rule="evenodd"></path><path id="path1" d="M185.417 99.515 C 178.564 101.360,176.635 103.922,172.303 116.935 C 169.053 126.698,168.805 127.269,167.394 128.227 C 166.548 128.801,164.640 128.843,132.000 129.014 C 93.659 129.214,96.284 129.054,91.157 131.502 C 84.818 134.529,79.891 140.417,77.768 147.500 C 76.897 150.409,76.651 264.824,77.507 269.167 C 79.329 278.406,86.627 285.985,96.167 288.541 C 99.768 289.506,293.657 289.521,297.771 288.556 C 306.802 286.438,314.005 279.312,316.328 270.197 C 317.362 266.140,317.385 151.947,316.353 147.912 C 314.181 139.419,307.863 132.822,299.167 129.966 C 296.919 129.228,296.302 129.194,282.318 129.017 C 263.808 128.783,266.230 130.124,262.136 117.833 C 257.535 104.018,255.142 100.877,248.067 99.375 C 245.210 98.768,187.713 98.897,185.417 99.515 M247.009 110.004 C 248.734 110.885,249.030 111.523,252.334 121.500 C 258.042 138.737,258.987 139.333,280.613 139.333 C 298.603 139.333,301.682 140.412,305.297 147.982 L 306.500 150.500 306.500 209.167 L 306.500 267.833 305.471 270.000 C 303.386 274.393,299.455 277.515,294.757 278.510 C 291.361 279.230,102.635 279.229,99.240 278.510 C 94.563 277.518,90.871 274.560,88.738 270.093 L 87.500 267.500 87.412 210.026 C 87.315 146.507,87.189 150.441,89.429 146.721 C 90.673 144.656,92.876 142.491,95.005 141.244 C 98.340 139.290,97.467 139.333,133.387 139.333 C 168.075 139.333,168.262 139.326,171.564 137.780 C 176.400 135.516,177.903 133.107,181.841 121.309 C 185.073 111.629,185.542 110.674,187.500 109.804 C 189.406 108.957,245.325 109.145,247.009 110.004 M99.690 149.584 C 96.183 151.372,96.093 156.593,99.535 158.585 C 101.463 159.700,123.360 159.609,124.872 158.479 C 128.102 156.066,127.992 151.404,124.664 149.618 C 122.953 148.701,101.480 148.671,99.690 149.584 M209.000 149.502 C 165.113 155.502,142.477 205.520,166.974 242.367 C 199.856 291.828,276.903 268.424,276.822 209.000 C 276.772 172.229,245.220 144.549,209.000 149.502 M226.755 160.297 C 259.264 167.187,276.378 202.809,261.170 231.930 C 240.346 271.804,181.775 265.801,169.172 222.500 C 158.966 187.436,191.088 152.738,226.755 160.297 M210.167 169.532 C 177.750 175.278,165.588 215.576,189.433 238.227 C 214.949 262.464,256.990 244.293,257.053 209.000 C 257.098 184.156,234.584 165.205,210.167 169.532 M225.099 180.475 C 248.815 187.469,254.488 218.379,234.729 232.945 C 215.143 247.384,187.333 233.457,187.333 209.210 C 187.333 189.508,206.438 174.972,225.099 180.475 " stroke="none" fill="#a2c758" fill-rule="evenodd"></path></g></svg>