<?xml version="1.0" encoding="UTF-8" standalone="no"?>
<svg
   xmlns:dc="http://purl.org/dc/elements/1.1/"
   xmlns:cc="http://creativecommons.org/ns#"
   xmlns:rdf="http://www.w3.org/1999/02/22-rdf-syntax-ns#"
   xmlns:svg="http://www.w3.org/2000/svg"
   xmlns="http://www.w3.org/2000/svg"
   xmlns:sodipodi="http://sodipodi.sourceforge.net/DTD/sodipodi-0.dtd"
   xmlns:inkscape="http://www.inkscape.org/namespaces/inkscape"
   id="svg"
   version="1.1"
   width="400"
   height="400"
   style="display: block;"
   sodipodi:docname="treeBorn_icon.svg"
   inkscape:version="0.92.1 r15371">
  <metadata
     id="metadata3688">
    <rdf:RDF>
      <cc:Work
         rdf:about="">
        <dc:format>image/svg+xml</dc:format>
        <dc:type
           rdf:resource="http://purl.org/dc/dcmitype/StillImage" />
      </cc:Work>
    </rdf:RDF>
  </metadata>
  <defs
     id="defs3686" />
  <sodipodi:namedview
     pagecolor="#ffffff"
     bordercolor="#666666"
     borderopacity="1"
     objecttolerance="10"
     gridtolerance="10"
     guidetolerance="10"
     inkscape:pageopacity="0"
     inkscape:pageshadow="2"
     inkscape:window-width="1920"
     inkscape:window-height="1018"
     id="namedview3684"
     showgrid="false"
     inkscape:zoom="2"
     inkscape:cx="297.46904"
     inkscape:cy="192.75566"
     inkscape:window-x="-8"
     inkscape:window-y="-8"
     inkscape:window-maximized="1"
     inkscape:current-layer="svg" />
  <g
     id="svgg">
    <path
       id="path0"
       d="M221.679 83.797 C 222.877 84.937,243.388 100.000,243.740 100.000 C 244.197 100.000,221.995 83.366,221.512 83.346 C 221.335 83.339,221.410 83.542,221.679 83.797 M264.993 127.530 C 260.139 130.549,255.660 133.320,255.041 133.689 C 254.422 134.058,253.996 134.441,254.094 134.538 C 254.229 134.673,273.281 123.098,273.972 122.461 C 275.131 121.394,272.208 123.044,264.993 127.530 "
       stroke="none"
       fill="#404040"
       fill-rule="evenodd" />
    <path
       id="path1"
       d="M184.833 0.362 C 92.692 7.784,17.793 75.919,2.680 166.066 C -20.232 302.723,97.277 420.232,233.934 397.320 C 317.038 383.388,383.388 317.038,397.320 233.934 C 416.977 116.688,333.208 9.633,214.535 0.337 C 209.577 -0.052,189.758 -0.035,184.833 0.362 M216.000 13.533 C 301.950 20.802,372.450 87.065,385.134 172.500 C 401.884 285.330,314.095 387.086,200.000 387.086 C 96.712 387.086,12.914 303.288,12.914 200.000 C 12.914 90.473,106.772 4.295,216.000 13.533 M187.833 25.206 C 154.521 28.462,129.360 36.914,104.333 53.252 C 88.649 63.491,85.756 66.717,87.963 71.500 C 90.291 76.543,94.389 76.610,100.673 71.706 C 152.974 30.895,226.807 26.474,283.408 60.763 C 369.421 112.870,388.488 228.046,323.816 304.846 C 318.480 311.183,317.936 314.310,321.630 317.418 C 325.909 321.018,328.661 319.597,336.635 309.667 C 386.598 247.444,388.073 158.088,340.180 94.833 C 310.460 55.580,268.715 31.807,218.954 25.797 C 214.737 25.288,191.509 24.846,187.833 25.206 M185.548 57.343 C 184.388 57.690,183.420 58.531,182.799 59.733 C 182.025 61.230,182.149 78.566,182.963 82.507 C 185.350 94.074,193.608 103.651,204.679 107.691 C 210.219 109.713,210.438 109.734,227.917 109.903 L 244.000 110.060 244.000 134.148 L 244.000 158.236 238.417 158.431 C 222.152 159.002,202.998 167.269,203.001 173.717 C 203.003 178.684,207.442 180.024,212.690 176.641 C 236.959 161.002,268.713 168.352,283.355 192.998 C 285.009 195.782,286.260 196.667,288.539 196.665 C 293.319 196.662,294.838 192.412,291.839 187.440 C 283.892 174.269,269.744 163.647,255.750 160.346 L 254.000 159.934 254.000 152.300 L 254.000 144.667 266.417 144.660 C 279.862 144.653,282.055 144.473,286.222 143.037 C 293.117 140.660,299.594 134.520,302.006 128.074 C 303.679 123.602,303.772 122.893,303.918 113.504 C 304.072 103.637,303.953 102.718,302.319 101.153 L 301.289 100.167 283.395 100.167 C 262.457 100.167,261.763 100.273,255.773 104.378 C 255.007 104.904,254.294 105.333,254.190 105.333 C 254.085 105.333,254.000 101.992,254.000 97.908 C 254.000 86.629,253.310 82.579,250.351 76.500 C 245.176 65.869,235.202 58.795,223.342 57.345 C 219.948 56.930,186.931 56.928,185.548 57.343 M223.333 67.476 C 236.479 69.856,243.952 79.853,243.988 95.107 L 244.000 100.047 228.583 99.921 C 211.625 99.781,210.623 99.671,206.282 97.476 C 196.545 92.551,192.333 85.129,192.333 72.895 L 192.333 67.000 206.583 67.012 C 217.094 67.020,221.489 67.142,223.333 67.476 M72.033 81.386 C 69.387 82.147,58.738 95.413,51.518 106.944 C 13.004 168.454,16.550 248.661,60.312 305.833 C 102.072 360.391,170.191 385.553,237.167 371.161 C 262.248 365.771,288.637 353.442,307.775 338.173 C 313.213 333.835,314.270 329.995,310.920 326.752 C 307.590 323.529,304.990 323.875,299.327 328.294 C 244.150 371.349,165.838 373.616,108.333 333.824 C 28.875 278.841,14.069 168.917,76.184 95.154 C 79.946 90.687,80.671 89.435,80.659 87.427 C 80.634 83.087,76.409 80.128,72.033 81.386 M294.000 114.621 C 294.000 122.242,292.804 125.809,288.963 129.651 C 284.462 134.151,282.113 134.667,266.105 134.667 L 254.000 134.667 254.000 129.394 C 254.000 121.836,255.150 118.549,259.131 114.726 C 263.730 110.310,264.861 110.066,280.917 110.030 L 294.000 110.000 294.000 114.621 M169.755 180.676 C 161.284 181.364,156.408 182.938,139.500 190.441 L 126.500 196.211 124.850 194.557 C 121.834 191.533,116.530 190.136,112.568 191.324 C 110.432 191.963,78.561 206.009,77.871 206.615 C 76.285 208.006,76.333 206.546,76.334 252.906 C 76.334 301.112,76.189 297.825,78.392 299.440 C 80.786 301.194,81.401 301.001,94.367 294.417 C 100.857 291.121,115.393 283.761,126.670 278.060 C 149.234 266.653,149.220 266.662,151.131 262.667 C 152.054 260.735,152.170 260.157,152.195 257.333 L 152.224 254.167 154.147 253.394 C 158.779 251.533,160.758 251.204,167.333 251.203 C 176.478 251.201,176.651 251.259,195.333 260.483 C 215.644 270.512,217.688 271.167,228.667 271.167 C 239.839 271.167,237.987 271.812,279.833 253.337 C 316.672 237.073,315.364 237.703,318.167 234.859 C 331.705 221.121,318.113 197.949,299.500 203.036 C 297.150 203.678,264.869 218.708,263.909 219.607 C 261.499 221.864,262.075 225.988,265.013 227.507 C 267.280 228.679,267.854 228.480,285.113 220.513 C 302.357 212.553,303.367 212.156,305.578 212.459 C 314.092 213.626,316.555 224.890,309.225 229.141 C 307.189 230.323,242.555 258.779,239.995 259.621 C 227.980 263.574,221.562 262.256,199.654 251.335 C 180.744 241.908,178.425 241.175,167.500 241.170 C 160.008 241.166,157.567 241.534,151.833 243.533 C 150.000 244.172,148.382 244.726,148.237 244.764 C 147.843 244.868,130.577 205.618,130.894 205.339 C 131.350 204.936,157.714 193.457,159.500 192.883 C 167.981 190.159,177.057 189.795,185.581 191.835 C 188.537 192.543,237.725 210.326,240.000 211.510 C 245.729 214.490,245.571 222.958,239.726 226.111 C 236.543 227.828,236.663 227.855,215.453 220.639 C 194.776 213.604,194.164 213.456,192.046 214.966 C 189.328 216.905,189.359 221.358,192.103 223.156 C 192.544 223.445,201.796 226.678,212.663 230.340 L 232.421 237.000 235.842 237.000 C 252.117 237.000,260.421 218.041,249.324 206.216 C 246.325 203.021,245.406 202.620,217.988 192.557 C 185.324 180.568,181.791 179.698,169.755 180.676 M117.415 201.417 C 118.017 201.879,142.340 256.770,142.323 257.628 C 142.317 257.924,142.122 258.417,141.890 258.722 C 141.542 259.179,87.052 287.000,86.504 287.000 C 86.410 287.000,86.333 282.385,86.333 276.745 L 86.333 266.490 94.083 262.662 C 103.539 257.991,104.700 256.652,102.699 252.730 C 100.921 249.245,98.623 249.231,91.699 252.661 L 86.328 255.322 86.414 234.450 L 86.500 213.579 100.667 207.327 C 114.557 201.197,116.320 200.576,117.415 201.417 "
       stroke="none"
       fill="#848484"
       fill-rule="evenodd" />
  </g>
  <path
     style="stroke-width:0.47003525;fill:#95c659;fill-opacity:1"
     d="m 78.361037,298.97389 c -1.323443,-1.32344 -1.360518,-1.49888 -1.666928,-7.88786 -0.40592,-8.46385 -0.407186,-66.58365 -0.0017,-75.95287 0.249849,-5.77241 0.465575,-7.35582 1.086802,-7.97705 0.712646,-0.71264 21.832176,-10.27105 31.729379,-14.36027 3.71154,-1.5335 4.56379,-1.71634 7.06435,-1.51562 3.11148,0.24976 5.90311,1.46464 8.3969,3.65421 l 1.61177,1.41515 10.26969,-4.5265 c 19.50919,-8.59892 24.47225,-10.21497 33.53429,-10.9193 11.82508,-0.91908 16.95222,0.45679 56.74828,15.22837 19.75201,7.33159 22.27187,8.84185 25.40845,15.22841 1.13047,2.30178 1.27668,3.13779 1.27668,7.29984 0,4.116 -0.15661,5.03449 -1.25973,7.38804 -1.73483,3.70139 -5.06481,7.11746 -8.6665,8.89056 -2.44479,1.20357 -3.72292,1.50698 -7.17803,1.70398 l -4.20362,0.23968 -19.66334,-6.70091 c -10.81483,-3.6855 -20.03129,-6.89283 -20.48103,-7.12741 -0.44973,-0.23458 -1.15588,-1.08048 -1.56921,-1.87978 -1.62173,-3.13608 0.59296,-6.77138 4.04148,-6.63387 1.01911,0.0406 10.15893,2.81708 20.3107,6.16986 10.15177,3.35278 19.33565,6.23464 20.40864,6.40414 2.47265,0.39061 5.19645,-0.90404 7.07007,-3.36048 1.16611,-1.52885 1.31983,-2.12753 1.31983,-5.14026 0,-4.18476 -0.80308,-5.50113 -4.48634,-7.35378 -2.61934,-1.3175 -36.08678,-13.60622 -48.39263,-17.76901 -13.02671,-4.40663 -23.24747,-4.20026 -35.25264,0.71183 -5.14342,2.1045 -24.52248,10.59916 -24.88452,10.90792 -0.34541,0.29459 0.78289,3.10519 6.66585,16.60472 7.29918,16.74931 10.25491,23.03173 10.8359,23.03173 0.25851,0 2.5013,-0.68289 4.98397,-1.51754 4.49882,-1.51243 4.54627,-1.51755 14.14968,-1.52504 9.36849,-0.007 9.74,0.0291 13.396,1.31448 2.06816,0.7271 9.47121,4.08207 16.45124,7.45549 19.64061,9.49223 24.45472,11.19388 31.66836,11.19388 7.25109,0 6.28249,0.35725 44.00731,-16.23144 40.63299,-17.86749 38.10153,-16.58194 39.76967,-20.1963 2.12144,-4.59655 0.1349,-9.89058 -4.51702,-12.03758 -2.27303,-1.04907 -4.18676,-1.11081 -6.72059,-0.21682 -1.04688,0.36936 -8.42365,3.62735 -16.39282,7.23999 -16.69205,7.56694 -17.83976,7.98081 -19.8375,7.15331 -2.67751,-1.10906 -3.60555,-5.40246 -1.55829,-7.20914 1.33825,-1.18099 15.0738,-7.81721 30.17312,-14.57789 6.2006,-2.77631 6.44261,-2.842 10.59963,-2.87737 4.0067,-0.0341 4.46253,0.0668 7.83625,1.73391 9.61806,4.75279 13.65985,16.1819 8.98501,25.40724 -2.0358,4.01747 -5.00452,6.71943 -10.00652,9.10737 -13.49757,6.44369 -63.25671,28.11087 -69.58828,30.30159 -4.38087,1.51579 -4.62093,1.54517 -12.69095,1.55332 -5.3981,0.005 -9.11427,-0.21212 -10.81082,-0.63295 -4.0053,-0.99352 -9.4459,-3.35435 -23.97179,-10.40204 -7.36781,-3.57472 -14.72766,-6.9452 -16.35522,-7.48997 -6.05194,-2.02565 -17.19741,-1.74384 -22.9919,0.58135 l -2.72104,1.09188 -0.26512,3.49824 c -0.31223,4.11982 -1.51513,6.7616 -4.01831,8.82493 -3.15333,2.59924 -63.736451,33.34153 -66.552581,33.77143 -1.481125,0.2261 -1.942753,0.0638 -3.094376,-1.0878 z m 17.619686,-16.4291 c 34.692877,-17.68865 45.870207,-23.54095 46.224197,-24.20238 0.49314,-0.92146 -5.00861,-13.77428 -23.17317,-54.13559 -1.59549,-3.54515 -1.96681,-3.70911 -5.57665,-2.46243 -1.13121,0.39067 -7.71479,3.18413 -14.630188,6.20768 l -12.573443,5.49737 v 21.02785 21.02784 l 4.817861,-2.31718 c 7.17342,-3.45009 9.45582,-3.61141 11.17616,-0.78991 1.33848,2.19522 1.19147,3.94625 -0.46093,5.48981 -0.76349,0.71322 -4.570777,2.92441 -8.460631,4.91376 l -7.07246,3.617 v 10.31596 c 0,6.19427 0.17822,10.31596 0.446058,10.31596 0.245332,0 4.42277,-2.02758 9.283196,-4.50574 z"
     id="path3690"
     inkscape:connector-curvature="0" />
  <path
     style="fill:#95c659;fill-opacity:1;stroke-width:0.47003525"
     d="m 285.84942,195.57639 c -0.59468,-0.41654 -1.98161,-2.16155 -3.08204,-3.8778 -12.04128,-18.77967 -34.27336,-27.43262 -55.6537,-21.66097 -4.51721,1.21942 -8.35804,2.84906 -13.24764,5.62089 -4.49393,2.54753 -6.30767,3.07304 -8.1667,2.36624 -1.5521,-0.59011 -2.85029,-3.36348 -2.40694,-5.14204 0.81629,-3.27465 7.65589,-7.7258 16.26564,-10.58554 6.53918,-2.172 11.19692,-3.07253 18.51482,-3.57967 3.36075,-0.2329 6.16526,-0.43092 6.23223,-0.44004 0.067,-0.009 0.067,-10.85678 0,-24.1059 l -0.12178,-24.0893 -16.33844,-0.32656 c -18.55115,-0.37079 -19.64894,-0.53437 -26.64376,-3.97013 -3.69743,-1.81613 -5.11133,-2.85684 -8.46063,-6.22747 -6.70031,-6.742982 -9.21585,-12.252092 -10.00364,-21.908276 -0.25309,-3.102233 -0.35622,-8.361684 -0.22917,-11.687669 0.22002,-5.760252 0.28977,-6.106015 1.4697,-7.285547 l 1.23871,-1.2383 h 19.61288 c 22.31496,0 22.39223,0.0098 30.18746,3.838972 3.71887,1.826767 5.13412,2.866415 8.47738,6.22747 3.28691,3.304426 4.41451,4.842757 6.23046,8.49995 3.27295,6.591478 3.6748,8.603087 3.96716,19.85899 0.13933,5.36428 0.32366,9.75323 0.40962,9.75323 0.086,0 1.46294,-0.84451 3.05993,-1.87669 1.59699,-1.03219 3.6664,-2.12482 4.5987,-2.42806 1.13899,-0.37048 7.97375,-0.61496 20.8336,-0.74523 l 19.13851,-0.19386 0.95374,1.56434 c 0.87051,1.42782 0.95329,2.34373 0.94855,10.49501 -0.006,10.01946 -0.49127,13.02364 -2.86803,17.74866 -1.85672,3.69117 -7.12907,8.96292 -11.02759,11.02634 -5.08759,2.69277 -7.05896,2.9851 -22.17088,3.28764 l -13.74853,0.27524 v 7.60156 7.60156 l 4.16148,1.24572 c 11.97243,3.58389 24.24934,12.59593 31.55425,23.16286 4.04929,5.8575 4.61467,8.35637 2.39328,10.57776 -1.59628,1.59628 -4.28986,1.86952 -6.07863,0.61662 z m -2.44786,-61.95893 c 1.94006,-0.62789 3.25172,-1.52388 5.44653,-3.7205 3.95542,-3.95869 4.93144,-6.61131 5.27599,-14.33903 l 0.25883,-5.80517 -14.05397,0.21759 c -10.19504,0.15784 -14.56538,0.39447 -15.91648,0.86181 -2.23568,0.77329 -7.50587,5.57318 -8.68969,7.91424 -1.29794,2.56673 -1.90373,6.18744 -1.90373,11.37832 v 4.72006 l 13.51351,-0.20013 c 11.23003,-0.16631 13.94533,-0.33988 16.06901,-1.02719 z M 244.0407,95.041128 c -0.27645,-10.022043 -2.33991,-15.731942 -7.57129,-20.950883 -1.77843,-1.774206 -4.19752,-3.619149 -5.6821,-4.333514 -4.87038,-2.34358 -6.94473,-2.607875 -23.26561,-2.96429 l -15.27728,-0.333624 0.008,5.595503 c 0.0149,10.188351 2.00856,15.872946 7.30444,20.826983 2.83673,2.653617 6.87384,5.120463 10.31372,6.302109 1.11675,0.38362 26.72645,1.210188 32.90247,1.061948 l 1.4101,-0.0339 -0.14261,-5.170383 z"
     id="path4497"
     inkscape:connector-curvature="0" />
  <path
     style="fill:#95c659;fill-opacity:1;stroke-width:0.04154564"
     d=""
     id="path4499"
     inkscape:connector-curvature="0" />
  <path
     style="fill:#95c659;fill-opacity:1;stroke-width:0.04154564"
     d="m 254.12242,134.4361 c 0.0478,-0.0894 0.35026,-0.34639 0.62575,-0.53178 0.10282,-0.0692 0.80391,-0.50509 1.55796,-0.96865 0.75405,-0.46357 3.04426,-1.88089 5.08934,-3.14961 5.33722,-3.31107 5.63964,-3.49801 7.27049,-4.49413 3.15298,-1.92584 5.24635,-3.11658 5.47905,-3.11658 0.12938,0 -0.27548,0.34545 -0.84671,0.72248 -3.22289,2.12716 -18.9021,11.61657 -19.1939,11.61657 -0.0131,0 -0.005,-0.0352 0.018,-0.0783 z"
     id="path4501"
     inkscape:connector-curvature="0" />
  <path
     style="fill:#95c659;fill-opacity:1;stroke-width:0.00390625"
     d="m 236.39739,94.789959 c -1.74916,-1.274683 -3.87892,-2.837105 -5.74374,-4.213684 -0.20518,-0.151458 -0.46709,-0.344751 -0.58203,-0.429541 -0.11495,-0.08479 -0.21066,-0.155668 -0.2127,-0.157508 -0.002,-0.0019 0.18557,-0.0033 0.42203,-0.0033 h 0.42574 l 0.0936,0.06957 c 1.35628,1.008138 3.98608,2.981811 5.64542,4.236892 l 0.32512,0.245916 v 0.26092 c 0,0.143506 -6.1e-4,0.26092 -10e-4,0.26092 -7.5e-4,0 -0.16819,-0.121563 -0.37207,-0.270141 z"
     id="path4503"
     inkscape:connector-curvature="0" />
  <path
     style="fill:#95c659;fill-opacity:1;stroke-width:0.03125"
     d="m 243.30683,99.719099 c -0.82559,-0.558039 -2.49521,-1.746185 -4.89844,-3.485845 l -1.61719,-1.17066 v -0.248303 -0.248304 l 0.38282,0.293071 c 0.21054,0.161189 0.71328,0.54431 1.11718,0.85138 3.26906,2.485302 5.4461,4.201091 5.32813,4.199254 -0.0172,-2.82e-4 -0.15781,-0.08604 -0.3125,-0.190593 z"
     id="path4505"
     inkscape:connector-curvature="0" />
  <path
     style="fill:#95c659;fill-opacity:1;stroke-width:0.03125"
     d="m 228.27176,88.794447 c -4.1917,-3.113061 -6.29192,-4.71813 -6.64452,-5.078017 -0.15448,-0.157672 -0.21158,-0.284394 -0.15406,-0.341915 0.0556,-0.05561 0.65534,0.346278 2.52115,1.689459 1.42588,1.026478 6.17959,4.527092 6.55064,4.823863 l 0.10561,0.08447 -0.39445,0.0015 -0.39444,0.0015 z"
     id="path4507"
     inkscape:connector-curvature="0" />
  <path
     style="fill:#95c659;fill-opacity:1;stroke-width:0.00390625"
     d="m 240.99817,98.095771 c -0.36685,-0.262321 -0.83207,-0.59603 -1.10742,-0.79437 -0.71365,-0.514055 -1.12095,-0.808211 -1.89844,-1.371053 -0.57769,-0.418208 -0.76651,-0.554852 -0.97656,-0.70671 -0.11817,-0.08543 -0.21706,-0.157435 -0.21976,-0.160014 -0.004,-0.0037 -0.005,-0.05692 -0.004,-0.249604 l 0.001,-0.244913 0.16407,0.125604 c 0.30053,0.230086 0.68199,0.521025 1.2539,0.956351 1.21391,0.924005 2.44679,1.869213 2.90137,2.224387 l 0.0303,0.02365 v 0.149421 c 0,0.08218 -4.4e-4,0.149371 -9.7e-4,0.14931 -5.4e-4,-6.1e-5 -0.0651,-0.04599 -0.14356,-0.102062 z"
     id="path4509"
     inkscape:connector-curvature="0" />
  <path
     style="fill:#95c659;fill-opacity:1;stroke-width:0.00390625"
     d="m 240.74426,97.935586 c -1.0731,-0.76949 -2.14016,-1.540496 -3.50501,-2.532564 l -0.46754,-0.339844 -5e-5,-0.260742 c -3e-5,-0.143409 8.6e-4,-0.260743 0.002,-0.260743 0.001,0 0.064,0.04693 0.13965,0.104287 1.60513,1.216292 2.84806,2.165292 3.91399,2.98841 0.23312,0.180016 0.31543,0.245631 0.31543,0.251452 0,0.01013 0.004,0.01287 -0.0859,-0.05706 -0.63732,-0.494875 -1.59037,-1.225447 -2.79687,-2.143977 -0.66376,-0.505334 -1.41318,-1.077071 -1.46387,-1.116802 -0.004,-0.0031 -0.005,0.04674 -0.005,0.246178 v 0.250004 l 0.59277,0.429103 c 1.96405,1.421752 2.75999,1.995586 3.61524,2.606385 0.10492,0.07493 0.14355,0.10458 0.14355,0.110164 0,0.0042 -0.001,0.0076 -0.003,0.0074 -0.002,-1.06e-4 -0.17959,-0.126869 -0.39551,-0.281697 z"
     id="path4511"
     inkscape:connector-curvature="0" />
</svg>
