<svg id="svg" version="1.1" width="400" height="400" xmlns="http://www.w3.org/2000/svg" xmlns:xlink="http://www.w3.org/1999/xlink" style="display: block;"><g id="svgg"><path id="path0" d="M184.833 0.362 C 92.692 7.784,17.793 75.919,2.680 166.066 C -20.232 302.723,97.277 420.232,233.934 397.320 C 317.038 383.388,383.388 317.038,397.320 233.934 C 416.977 116.688,333.208 9.633,214.535 0.337 C 209.577 -0.052,189.758 -0.035,184.833 0.362 M216.000 13.533 C 301.950 20.802,372.450 87.065,385.134 172.500 C 401.884 285.330,314.095 387.086,200.000 387.086 C 96.712 387.086,12.914 303.288,12.914 200.000 C 12.914 90.473,106.772 4.295,216.000 13.533 M187.833 25.206 C 154.521 28.462,129.360 36.914,104.333 53.252 C 88.649 63.491,85.756 66.717,87.963 71.500 C 90.291 76.543,94.389 76.610,100.673 71.706 C 152.974 30.895,226.807 26.474,283.408 60.763 C 369.421 112.870,388.488 228.046,323.816 304.846 C 318.480 311.183,317.936 314.310,321.630 317.418 C 325.909 321.018,328.661 319.597,336.635 309.667 C 386.598 247.444,388.073 158.088,340.180 94.833 C 310.460 55.580,268.715 31.807,218.954 25.797 C 214.737 25.288,191.509 24.846,187.833 25.206 M72.033 81.386 C 69.387 82.147,58.738 95.413,51.518 106.944 C 13.004 168.454,16.550 248.661,60.312 305.833 C 102.072 360.391,170.191 385.553,237.167 371.161 C 262.248 365.771,288.637 353.442,307.775 338.173 C 313.213 333.835,314.270 329.995,310.920 326.752 C 307.590 323.529,304.990 323.875,299.327 328.294 C 244.150 371.349,165.838 373.616,108.333 333.824 C 28.875 278.841,14.069 168.917,76.184 95.154 C 79.946 90.687,80.671 89.435,80.659 87.427 C 80.634 83.087,76.409 80.128,72.033 81.386 " stroke="none" fill="#848484" fill-rule="evenodd"></path><path id="path1" d="M186.333 62.870 C 185.692 62.938,183.517 63.159,181.500 63.362 C 166.787 64.839,144.204 72.085,138.807 77.060 C 135.433 80.170,132.764 90.974,129.682 114.000 C 128.215 124.957,128.636 124.215,125.781 120.883 C 124.468 119.351,122.907 117.214,122.310 116.132 C 119.502 111.042,117.550 111.036,114.618 116.107 C 113.857 117.423,112.445 119.559,111.480 120.853 C 92.086 146.860,91.038 164.606,104.668 236.167 C 112.485 277.201,119.875 293.789,133.734 301.406 C 135.163 302.191,137.870 303.793,139.750 304.965 C 150.845 311.886,153.013 312.953,159.479 314.671 C 170.864 317.695,198.533 319.613,217.333 318.679 C 221.642 318.465,228.092 318.162,231.667 318.005 C 242.216 317.541,250.652 314.324,266.833 304.593 C 275.165 299.582,276.187 298.808,279.074 295.329 C 280.517 293.590,282.581 291.101,283.661 289.800 C 293.267 278.221,296.060 270.424,300.841 241.841 C 305.229 215.611,308.210 203.012,313.161 189.774 C 319.295 173.374,315.835 154.193,304.147 139.799 C 300.578 135.405,300.872 135.025,317.474 122.561 C 324.786 117.072,326.654 112.184,323.719 106.223 C 320.635 99.957,316.708 99.818,307.514 105.650 C 303.619 108.121,303.029 108.022,300.536 104.479 C 298.563 101.675,290.030 105.759,286.143 111.367 C 285.000 113.017,285.171 113.303,283.660 107.223 C 281.410 98.171,280.558 97.365,267.241 91.698 C 252.914 85.601,247.428 84.405,240.833 85.941 C 238.450 86.497,234.625 87.352,232.333 87.842 C 219.789 90.527,213.140 94.405,208.403 101.801 L 207.528 103.167 207.260 101.333 C 207.112 100.325,206.321 95.975,205.502 91.667 C 203.482 81.050,202.747 76.285,202.342 71.205 C 201.740 63.637,200.857 62.855,192.833 62.790 C 189.900 62.766,186.975 62.802,186.333 62.870 M190.887 71.359 C 193.569 72.658,194.288 74.931,196.676 89.667 C 198.477 100.787,203.627 126.738,204.133 127.244 C 204.782 127.893,213.102 114.269,214.637 110.042 C 217.545 102.033,221.321 99.381,234.456 96.123 C 244.871 93.539,245.096 93.649,243.566 100.553 C 242.197 106.736,241.418 112.035,240.496 121.451 C 240.027 126.244,239.336 132.942,238.961 136.333 C 238.586 139.725,238.068 144.450,237.810 146.833 C 237.085 153.533,237.306 167.555,238.107 165.667 C 239.286 162.887,244.008 140.822,245.490 131.167 C 247.204 120.002,247.409 118.813,248.505 113.690 C 249.943 106.970,250.667 102.028,250.667 98.938 C 250.667 95.944,251.102 95.137,252.561 95.429 C 255.847 96.086,271.179 102.608,271.800 103.613 C 271.930 103.823,269.882 106.554,267.079 109.909 C 258.387 120.311,251.660 129.667,252.873 129.667 C 255.034 129.667,262.508 123.063,271.651 113.074 C 273.543 111.006,275.137 109.359,275.192 109.414 C 275.247 109.469,277.478 118.061,280.152 128.507 C 282.825 138.953,285.171 148.081,285.365 148.791 C 286.381 152.506,289.413 152.460,293.564 148.666 C 296.047 146.397,297.559 146.529,298.790 149.122 C 300.018 151.711,299.154 154.444,295.448 159.683 C 291.233 165.644,289.788 169.063,289.434 173.917 C 289.194 177.219,289.588 177.474,291.498 175.250 C 295.151 170.999,301.667 157.333,301.667 153.925 C 301.667 153.229,301.682 153.231,302.532 154.025 C 305.772 157.052,306.177 161.791,303.515 165.552 C 301.402 168.539,300.991 169.641,296.776 183.592 C 292.226 198.655,291.993 199.636,292.800 200.306 C 294.230 201.492,294.790 200.685,296.995 194.255 C 301.859 180.074,303.522 176.259,306.029 173.540 C 307.958 171.448,308.171 171.623,308.149 175.278 C 308.132 177.977,307.994 178.539,306.041 183.833 C 301.037 197.398,298.059 209.763,292.831 238.680 C 287.809 266.460,286.416 270.981,279.832 280.868 C 256.153 316.424,180.135 324.120,140.834 294.939 C 126.756 284.486,120.601 273.118,116.323 249.667 C 115.237 243.708,113.140 232.833,111.664 225.500 C 103.849 186.670,103.295 181.586,104.447 159.167 C 105.062 147.175,105.042 147.247,110.038 139.597 L 111.934 136.694 112.627 139.264 C 113.619 142.943,113.937 144.787,114.681 151.167 C 115.044 154.283,115.421 157.283,115.519 157.833 C 115.966 160.354,116.780 163.530,117.055 163.829 C 117.238 164.028,117.344 157.060,117.322 146.329 C 117.301 136.523,117.387 128.236,117.512 127.914 C 118.073 126.472,119.343 126.797,121.236 128.867 C 129.283 137.667,132.777 146.340,134.175 160.976 C 134.860 168.159,136.312 173.581,137.043 171.690 C 137.697 169.998,137.736 167.074,137.158 162.990 C 134.095 141.337,139.662 87.545,145.414 83.222 C 149.222 80.360,164.175 74.535,165.666 75.333 C 166.648 75.859,166.640 75.702,166.776 96.167 C 166.910 116.312,167.116 119.209,168.093 114.667 C 169.886 106.322,170.387 101.256,171.358 81.667 C 171.757 73.595,171.839 73.284,173.667 72.839 C 175.777 72.327,175.723 71.887,175.686 89.348 C 175.612 124.004,178.793 161.679,182.410 168.969 L 183.500 171.167 183.667 162.841 L 183.833 154.515 185.034 156.174 C 188.077 160.377,189.351 163.556,191.645 172.667 C 193.547 180.223,194.911 184.667,195.328 184.667 C 196.119 184.667,196.361 174.309,195.675 169.833 C 194.816 164.231,192.753 159.169,189.052 153.583 C 185.269 147.873,183.853 144.603,182.831 139.215 C 182.300 136.416,182.214 134.975,181.652 119.500 C 181.466 114.367,180.944 103.042,180.492 94.333 C 179.368 72.643,179.380 73.472,180.197 72.655 C 180.685 72.167,181.880 71.810,184.519 71.363 C 189.296 70.556,189.227 70.556,190.887 71.359 M316.837 111.219 L 317.435 112.131 316.321 112.982 C 305.139 121.523,295.979 129.494,291.829 134.296 C 288.886 137.701,288.708 137.781,287.517 136.219 C 286.343 134.679,286.440 133.977,288.145 131.660 C 290.498 128.464,292.655 121.709,292.667 117.500 C 292.681 112.895,295.523 111.616,296.578 115.739 C 297.676 120.029,299.810 120.640,303.760 117.795 C 316.483 108.633,315.475 109.140,316.837 111.219 M145.333 211.789 C 120.755 217.525,116.685 249.669,139.167 260.496 C 161.457 271.231,185.335 248.482,174.988 226.369 C 169.931 215.562,156.809 209.110,145.333 211.789 M251.833 211.687 C 236.024 214.300,225.903 230.493,230.843 245.271 C 238.259 267.459,269.513 269.731,279.849 248.833 C 289.249 229.828,272.937 208.199,251.833 211.687 M146.584 223.630 C 152.172 226.504,152.297 233.983,146.810 237.198 C 141.982 240.027,135.866 236.285,135.862 230.500 C 135.859 224.824,141.669 221.102,146.584 223.630 M251.597 223.637 C 256.791 226.315,257.660 232.720,253.331 236.425 C 246.981 241.860,237.788 233.933,242.179 226.809 C 244.228 223.483,248.504 222.043,251.597 223.637 M158.444 247.015 C 161.635 249.526,158.643 255.127,154.945 253.562 C 152.662 252.597,151.788 250.417,152.814 248.254 C 153.747 246.289,156.695 245.640,158.444 247.015 M264.083 247.651 C 265.936 249.725,264.892 253.179,262.209 253.852 C 259.937 254.423,257.667 252.615,257.667 250.237 C 257.667 246.674,261.742 245.032,264.083 247.651 " stroke="none" fill="#a2c758" fill-rule="evenodd"></path></g></svg>