<svg id="svg" version="1.1" width="515" height="514" xmlns="http://www.w3.org/2000/svg" xmlns:xlink="http://www.w3.org/1999/xlink" style="display: block;"><g id="svgg"><path id="path0" d="M217.001 1.654 C 210.126 2.498,204.276 3.530,204.001 3.946 C 203.725 4.363,199.000 5.503,193.500 6.480 C 188.000 7.457,183.275 8.558,183.000 8.926 C 182.725 9.294,180.025 10.326,177.000 11.220 C 169.143 13.541,160.151 16.761,155.504 18.918 C 143.137 24.658,140.022 26.000,139.062 26.000 C 138.478 26.000,138.000 26.406,138.000 26.902 C 138.000 27.398,136.650 28.275,135.000 28.850 C 133.350 29.425,132.000 30.369,132.000 30.948 C 132.000 31.527,131.663 31.907,131.250 31.794 C 130.424 31.568,123.797 34.892,123.000 35.932 C 122.725 36.291,121.150 37.260,119.500 38.085 C 114.404 40.634,109.000 44.161,109.000 44.938 C 109.000 45.346,107.763 46.242,106.250 46.930 C 104.737 47.619,102.825 48.795,102.000 49.545 C 101.175 50.294,99.487 51.828,98.250 52.954 C 97.012 54.079,95.583 55.000,95.073 55.000 C 94.562 55.000,93.325 56.041,92.323 57.313 C 91.320 58.585,89.693 60.076,88.708 60.626 C 86.406 61.911,66.119 81.852,62.928 85.966 C 61.592 87.687,59.375 90.367,58.000 91.922 C 56.625 93.476,54.600 95.925,53.500 97.364 C 52.400 98.803,50.488 101.133,49.250 102.542 C 48.013 103.950,47.000 105.460,47.000 105.896 C 47.000 106.332,45.876 107.996,44.501 109.594 C 43.127 111.193,42.002 112.805,42.001 113.179 C 42.001 113.552,41.437 114.452,40.750 115.179 C 40.062 115.905,38.826 117.850,38.002 119.500 C 37.177 121.150,36.239 122.725,35.916 123.000 C 35.592 123.275,33.589 126.650,31.464 130.500 C 29.339 134.350,27.241 137.650,26.800 137.833 C 26.360 138.017,26.000 138.566,26.000 139.054 C 26.000 139.904,23.567 145.552,18.405 156.688 C 17.082 159.542,15.997 162.467,15.994 163.188 C 15.990 163.910,15.318 165.784,14.499 167.354 C 13.680 168.924,13.260 170.611,13.564 171.104 C 13.869 171.597,13.674 172.000,13.131 172.000 C 12.588 172.000,11.576 174.588,10.884 177.750 C 10.191 180.912,9.331 183.725,8.972 184.000 C 8.614 184.275,7.775 187.425,7.108 191.000 C 6.441 194.575,5.240 199.538,4.441 202.028 C -1.339 220.028,-1.339 293.972,4.441 311.972 C 5.240 314.462,6.441 319.425,7.108 323.000 C 7.775 326.575,8.614 329.725,8.972 330.000 C 9.331 330.275,10.191 333.087,10.884 336.250 C 11.576 339.412,12.588 342.000,13.131 342.000 C 13.674 342.000,13.869 342.403,13.564 342.896 C 13.260 343.389,13.680 345.076,14.499 346.646 C 15.318 348.216,15.990 350.090,15.994 350.812 C 15.997 351.533,17.082 354.458,18.405 357.312 C 23.567 368.448,26.000 374.096,26.000 374.946 C 26.000 375.434,26.360 375.983,26.800 376.167 C 27.241 376.350,29.339 379.650,31.464 383.500 C 33.589 387.350,35.592 390.725,35.916 391.000 C 36.239 391.275,37.177 392.850,38.002 394.500 C 38.826 396.150,40.063 398.095,40.750 398.821 C 41.438 399.548,42.001 400.448,42.001 400.821 C 42.002 401.195,43.127 402.807,44.501 404.406 C 45.876 406.004,47.000 407.668,47.000 408.104 C 47.000 408.540,48.012 410.050,49.250 411.458 C 50.487 412.867,52.400 415.197,53.500 416.636 C 54.600 418.075,56.625 420.524,58.000 422.078 C 59.375 423.633,61.592 426.313,62.928 428.034 C 66.119 432.148,86.406 452.089,88.708 453.374 C 89.693 453.924,91.320 455.415,92.323 456.687 C 93.325 457.959,94.562 459.000,95.073 459.000 C 95.583 459.000,97.012 459.921,98.250 461.046 C 99.487 462.172,101.175 463.706,102.000 464.455 C 102.825 465.205,104.737 466.381,106.250 467.070 C 107.762 467.758,109.000 468.654,109.000 469.062 C 109.000 469.839,114.404 473.366,119.500 475.915 C 121.150 476.740,122.725 477.709,123.000 478.068 C 123.797 479.108,130.424 482.432,131.250 482.206 C 131.662 482.093,132.000 482.473,132.000 483.052 C 132.000 483.631,133.350 484.575,135.000 485.150 C 136.650 485.725,138.000 486.602,138.000 487.098 C 138.000 487.594,138.478 488.000,139.062 488.000 C 140.022 488.000,143.137 489.342,155.504 495.082 C 160.151 497.239,169.143 500.459,177.000 502.780 C 180.025 503.674,182.725 504.706,183.000 505.074 C 183.275 505.442,188.000 506.543,193.500 507.520 C 199.000 508.497,203.725 509.634,204.000 510.046 C 207.243 514.908,310.000 514.778,310.000 509.911 C 310.000 509.535,312.137 508.932,314.750 508.571 C 321.887 507.586,330.435 505.705,331.000 504.996 C 331.275 504.651,333.975 503.629,337.000 502.726 C 347.049 499.726,355.494 496.706,356.010 495.927 C 356.291 495.504,357.843 494.827,359.460 494.421 C 361.077 494.015,364.831 492.404,367.801 490.841 C 370.772 489.279,373.832 488.000,374.602 488.000 C 375.371 488.000,376.000 487.580,376.000 487.067 C 376.000 486.554,376.939 485.837,378.086 485.473 C 380.673 484.652,390.379 478.771,390.833 477.750 C 391.017 477.337,391.737 477.000,392.433 477.000 C 393.130 477.000,395.564 475.650,397.841 474.000 C 400.119 472.350,402.286 471.000,402.657 471.000 C 403.029 471.000,404.045 470.327,404.916 469.503 C 406.990 467.544,415.886 461.000,416.475 461.000 C 416.727 461.000,418.508 459.425,420.433 457.500 C 422.358 455.575,424.256 454.000,424.651 454.000 C 426.105 454.000,457.525 421.157,461.500 415.483 C 462.600 413.913,464.512 411.409,465.750 409.920 C 466.988 408.430,468.000 406.891,468.000 406.500 C 468.000 406.109,469.012 404.527,470.250 402.984 C 474.849 397.252,476.057 395.492,477.258 392.780 C 477.935 391.251,478.828 390.000,479.244 390.000 C 479.660 390.000,480.000 389.429,480.000 388.732 C 480.000 388.035,481.042 385.897,482.316 383.982 C 483.589 382.067,485.251 378.925,486.009 377.000 C 486.767 375.075,487.699 373.275,488.081 373.000 C 488.994 372.342,492.353 364.715,492.154 363.750 C 492.069 363.337,492.400 363.000,492.889 363.000 C 493.377 363.000,494.070 361.439,494.428 359.532 C 494.786 357.625,495.655 355.487,496.359 354.782 C 497.063 354.077,498.187 351.321,498.857 348.657 C 499.527 345.994,500.675 342.844,501.408 341.657 C 502.140 340.471,503.310 336.688,504.006 333.250 C 504.703 329.812,505.598 327.000,505.995 327.000 C 506.392 327.000,507.283 323.513,507.975 319.250 C 508.667 314.988,509.837 309.250,510.575 306.500 C 515.628 287.683,515.628 226.317,510.575 207.500 C 509.837 204.750,508.667 199.013,507.975 194.750 C 507.283 190.488,506.392 187.000,505.995 187.000 C 505.598 187.000,504.703 184.187,504.006 180.750 C 503.310 177.313,502.140 173.529,501.408 172.343 C 500.675 171.156,499.527 168.006,498.857 165.343 C 498.187 162.679,497.063 159.923,496.359 159.218 C 495.655 158.513,494.786 156.375,494.428 154.468 C 494.070 152.561,493.377 151.000,492.889 151.000 C 492.400 151.000,492.069 150.662,492.154 150.250 C 492.353 149.285,488.994 141.658,488.081 141.000 C 487.699 140.725,486.767 138.925,486.009 137.000 C 485.251 135.075,483.589 131.933,482.316 130.018 C 481.042 128.103,480.000 125.965,480.000 125.268 C 480.000 124.571,479.660 124.000,479.244 124.000 C 478.828 124.000,477.935 122.749,477.258 121.220 C 476.057 118.508,474.849 116.748,470.250 111.016 C 469.012 109.473,468.000 107.891,468.000 107.500 C 468.000 107.109,466.988 105.570,465.750 104.080 C 464.512 102.591,462.600 100.087,461.500 98.517 C 457.525 92.843,426.105 60.000,424.651 60.000 C 424.256 60.000,422.358 58.425,420.433 56.500 C 418.508 54.575,416.727 53.000,416.475 53.000 C 415.886 53.000,406.990 46.456,404.916 44.497 C 404.045 43.673,403.029 43.000,402.657 43.000 C 402.286 43.000,400.119 41.650,397.841 40.000 C 395.564 38.350,393.298 37.000,392.808 37.000 C 392.317 37.000,391.372 36.544,390.708 35.986 C 387.933 33.656,381.310 29.655,378.751 28.763 C 377.238 28.236,376.000 27.398,376.000 26.902 C 376.000 26.406,375.371 26.000,374.602 26.000 C 373.832 26.000,370.772 24.721,367.801 23.159 C 364.831 21.596,361.077 19.985,359.460 19.579 C 357.843 19.173,356.291 18.496,356.010 18.073 C 355.494 17.294,347.049 14.274,337.000 11.274 C 333.975 10.371,331.275 9.349,331.000 9.004 C 330.435 8.295,321.887 6.414,314.750 5.429 C 312.137 5.068,310.000 4.465,310.000 4.089 C 310.000 0.767,239.295 -1.084,217.001 1.654 M270.500 18.000 C 270.840 18.550,273.454 18.999,276.309 18.997 C 283.050 18.993,307.351 22.053,308.000 22.988 C 308.275 23.384,311.650 24.283,315.500 24.986 C 319.350 25.689,322.959 26.623,323.519 27.063 C 324.080 27.502,327.567 28.622,331.269 29.552 C 334.971 30.482,338.000 31.567,338.000 31.962 C 338.000 32.357,340.475 33.274,343.500 34.000 C 346.525 34.726,349.000 35.652,349.000 36.059 C 349.000 36.466,351.250 37.608,354.000 38.597 C 356.750 39.586,359.000 40.700,359.000 41.073 C 359.000 41.445,360.296 42.009,361.879 42.326 C 363.463 42.643,365.441 43.584,366.274 44.417 C 367.107 45.250,369.749 46.703,372.144 47.645 C 374.540 48.587,376.860 49.952,377.300 50.679 C 377.740 51.405,378.720 52.000,379.478 52.000 C 380.237 52.000,381.474 52.617,382.227 53.370 C 382.981 54.124,385.151 55.535,387.049 56.506 C 388.947 57.477,390.860 58.885,391.300 59.635 C 391.740 60.386,392.730 61.000,393.500 61.000 C 394.270 61.000,395.260 61.567,395.700 62.260 C 396.140 62.953,398.300 64.695,400.500 66.132 C 402.700 67.570,405.761 69.928,407.302 71.373 C 408.842 72.818,410.360 74.000,410.675 74.000 C 411.574 74.000,440.000 102.710,440.000 103.618 C 440.000 104.064,440.879 105.345,441.953 106.465 C 446.540 111.246,447.982 113.064,449.472 115.947 C 450.341 117.626,451.435 119.000,451.904 119.000 C 452.374 119.000,453.317 120.350,454.000 122.000 C 454.683 123.650,455.536 125.000,455.894 125.000 C 456.252 125.000,457.434 126.687,458.520 128.750 C 459.606 130.813,461.059 133.095,461.748 133.821 C 462.436 134.548,463.000 135.529,463.000 136.000 C 463.000 136.471,463.570 137.452,464.268 138.179 C 464.965 138.905,466.383 141.412,467.420 143.750 C 468.456 146.087,469.685 148.000,470.152 148.000 C 470.618 148.000,471.000 148.533,471.000 149.184 C 471.000 149.836,471.860 152.198,472.910 154.434 C 476.821 162.759,480.867 172.593,481.576 175.500 C 481.979 177.150,482.600 178.725,482.958 179.000 C 483.812 179.657,487.740 193.526,489.754 203.000 C 490.631 207.125,491.660 210.725,492.039 211.000 C 496.326 214.105,496.326 299.895,492.039 303.000 C 491.660 303.275,490.631 306.875,489.754 311.000 C 487.740 320.474,483.812 334.343,482.958 335.000 C 482.600 335.275,481.979 336.850,481.576 338.500 C 480.867 341.407,476.821 351.241,472.910 359.566 C 471.860 361.802,471.000 364.164,471.000 364.816 C 471.000 365.467,470.618 366.000,470.152 366.000 C 469.685 366.000,468.456 367.912,467.420 370.250 C 466.383 372.587,464.965 375.095,464.268 375.821 C 463.570 376.548,463.000 377.529,463.000 378.000 C 463.000 378.471,462.436 379.452,461.748 380.179 C 461.059 380.905,459.606 383.188,458.520 385.250 C 457.434 387.313,456.252 389.000,455.894 389.000 C 455.536 389.000,454.683 390.350,454.000 392.000 C 453.317 393.650,452.374 395.000,451.904 395.000 C 451.435 395.000,450.341 396.374,449.472 398.053 C 447.982 400.936,446.540 402.754,441.953 407.535 C 440.879 408.655,440.000 409.936,440.000 410.382 C 440.000 411.290,411.574 440.000,410.675 440.000 C 410.360 440.000,408.842 441.182,407.302 442.627 C 405.761 444.072,402.700 446.430,400.500 447.868 C 398.300 449.305,396.140 451.047,395.700 451.740 C 395.260 452.433,394.270 453.000,393.500 453.000 C 392.730 453.000,391.740 453.614,391.300 454.365 C 390.860 455.115,388.947 456.523,387.049 457.494 C 385.151 458.465,382.981 459.876,382.227 460.630 C 381.474 461.383,380.237 462.000,379.478 462.000 C 378.720 462.000,377.740 462.595,377.300 463.321 C 376.860 464.048,374.540 465.413,372.144 466.355 C 369.749 467.297,367.107 468.750,366.274 469.583 C 365.441 470.416,363.463 471.357,361.879 471.674 C 360.296 471.991,359.000 472.555,359.000 472.927 C 359.000 473.300,356.750 474.414,354.000 475.403 C 351.250 476.392,349.000 477.534,349.000 477.941 C 349.000 478.348,346.525 479.274,343.500 480.000 C 340.475 480.726,338.000 481.643,338.000 482.038 C 338.000 482.433,334.971 483.518,331.269 484.448 C 327.567 485.378,324.080 486.498,323.519 486.937 C 322.959 487.377,319.350 488.311,315.500 489.014 C 311.650 489.717,308.275 490.616,308.000 491.012 C 307.351 491.947,283.050 495.007,276.309 495.003 C 273.454 495.001,270.840 495.450,270.500 496.000 C 269.677 497.331,243.323 497.331,242.500 496.000 C 242.160 495.450,239.771 495.001,237.191 495.003 C 230.832 495.007,206.623 491.910,206.000 491.012 C 205.725 490.616,202.463 489.725,198.750 489.033 C 195.038 488.340,192.000 487.476,192.000 487.112 C 192.000 486.748,188.175 485.612,183.500 484.587 C 178.825 483.562,175.000 482.342,175.000 481.876 C 175.000 481.410,172.975 480.519,170.500 479.896 C 168.025 479.272,166.000 478.464,166.000 478.100 C 166.000 477.735,163.950 476.831,161.445 476.092 C 158.939 475.352,156.335 474.192,155.658 473.515 C 154.981 472.838,152.756 471.679,150.713 470.941 C 148.671 470.202,147.000 469.311,147.000 468.959 C 147.000 468.608,145.178 467.719,142.951 466.984 C 140.724 466.249,138.587 465.164,138.201 464.574 C 137.442 463.412,133.367 460.918,128.350 458.546 C 126.617 457.727,124.592 456.452,123.850 455.713 C 123.107 454.973,120.025 452.671,117.000 450.596 C 113.975 448.521,111.140 446.188,110.700 445.411 C 110.260 444.635,109.376 444.000,108.735 444.000 C 108.095 444.000,106.655 443.137,105.535 442.082 C 100.715 437.538,82.636 420.405,81.617 419.415 C 81.003 418.818,78.925 416.368,77.000 413.972 C 75.075 411.576,72.712 408.927,71.750 408.085 C 70.787 407.244,70.000 406.003,70.000 405.327 C 70.000 404.652,69.365 403.740,68.589 403.300 C 67.812 402.860,65.490 400.025,63.427 397.000 C 61.364 393.975,59.362 391.275,58.978 391.000 C 58.594 390.725,57.483 388.947,56.510 387.049 C 55.537 385.151,54.124 382.981,53.370 382.227 C 52.617 381.474,52.000 380.232,52.000 379.468 C 52.000 378.703,51.160 377.273,50.133 376.289 C 49.106 375.305,47.721 372.813,47.055 370.750 C 46.390 368.687,45.502 367.000,45.083 367.000 C 44.663 367.000,43.726 365.200,43.000 363.000 C 42.274 360.800,41.325 359.000,40.891 359.000 C 40.457 359.000,39.322 356.525,38.368 353.500 C 37.415 350.475,36.320 348.000,35.936 348.000 C 35.552 348.000,34.728 345.975,34.104 343.500 C 33.481 341.025,32.590 339.000,32.124 339.000 C 31.658 339.000,30.438 335.175,29.413 330.500 C 28.388 325.825,27.242 322.000,26.865 322.000 C 26.489 322.000,25.610 318.737,24.910 314.750 C 24.211 310.762,23.354 307.275,23.005 307.000 C 21.984 306.194,20.030 291.415,19.336 279.250 C 18.983 273.063,18.313 268.000,17.847 268.000 C 17.381 268.000,17.000 263.050,17.000 257.000 C 17.000 250.950,17.381 246.000,17.847 246.000 C 18.313 246.000,18.983 240.937,19.336 234.750 C 20.030 222.585,21.984 207.806,23.005 207.000 C 23.354 206.725,24.211 203.237,24.910 199.250 C 25.610 195.262,26.489 192.000,26.865 192.000 C 27.242 192.000,28.388 188.175,29.413 183.500 C 30.438 178.825,31.658 175.000,32.124 175.000 C 32.590 175.000,33.481 172.975,34.104 170.500 C 34.728 168.025,35.552 166.000,35.936 166.000 C 36.320 166.000,37.415 163.525,38.368 160.500 C 39.322 157.475,40.457 155.000,40.891 155.000 C 41.325 155.000,42.274 153.200,43.000 151.000 C 43.726 148.800,44.663 147.000,45.083 147.000 C 45.502 147.000,46.390 145.313,47.055 143.250 C 47.721 141.188,49.106 138.695,50.133 137.711 C 51.160 136.727,52.000 135.297,52.000 134.532 C 52.000 133.768,52.617 132.526,53.370 131.773 C 54.124 131.019,55.537 128.849,56.510 126.951 C 57.483 125.053,58.594 123.275,58.978 123.000 C 59.362 122.725,61.364 120.025,63.427 117.000 C 65.490 113.975,67.812 111.140,68.589 110.700 C 69.365 110.260,70.000 109.348,70.000 108.673 C 70.000 107.997,70.787 106.756,71.750 105.915 C 72.713 105.073,75.075 102.424,77.000 100.028 C 78.925 97.632,81.003 95.182,81.617 94.585 C 82.636 93.595,100.715 76.462,105.535 71.918 C 106.655 70.863,108.095 70.000,108.735 70.000 C 109.376 70.000,110.260 69.365,110.700 68.589 C 111.140 67.812,113.975 65.479,117.000 63.404 C 120.025 61.329,123.107 59.027,123.850 58.287 C 124.592 57.548,126.617 56.273,128.350 55.454 C 133.367 53.082,137.442 50.588,138.201 49.426 C 138.587 48.836,140.724 47.751,142.951 47.016 C 145.178 46.281,147.000 45.392,147.000 45.041 C 147.000 44.689,148.671 43.798,150.713 43.059 C 152.756 42.321,154.981 41.162,155.658 40.485 C 156.335 39.808,158.939 38.648,161.445 37.908 C 163.950 37.169,166.000 36.265,166.000 35.900 C 166.000 35.536,168.025 34.728,170.500 34.104 C 172.975 33.481,175.000 32.590,175.000 32.124 C 175.000 31.658,178.825 30.438,183.500 29.413 C 188.175 28.388,192.000 27.252,192.000 26.888 C 192.000 26.524,195.037 25.660,198.750 24.967 C 202.463 24.275,205.725 23.384,206.000 22.988 C 206.623 22.090,230.832 18.993,237.191 18.997 C 239.771 18.999,242.160 18.550,242.500 18.000 C 243.323 16.669,269.677 16.669,270.500 18.000 M232.336 31.946 C 231.876 32.340,226.347 33.209,220.048 33.877 C 213.750 34.544,208.125 35.453,207.548 35.895 C 206.972 36.338,203.575 37.285,200.000 37.999 C 196.425 38.714,193.050 39.562,192.500 39.884 C 191.950 40.206,191.275 40.504,191.000 40.546 C 187.968 41.013,178.000 44.444,178.000 45.020 C 178.000 45.437,176.351 46.087,174.336 46.465 C 172.321 46.843,168.609 48.218,166.086 49.520 C 163.564 50.822,160.262 52.186,158.750 52.552 C 157.238 52.918,156.000 53.557,156.000 53.973 C 156.000 54.388,153.975 55.502,151.500 56.447 C 149.025 57.392,147.000 58.534,147.000 58.985 C 147.000 59.436,145.762 60.236,144.249 60.763 C 142.736 61.291,139.698 62.918,137.499 64.380 C 135.300 65.841,132.638 67.591,131.585 68.268 C 130.532 68.946,128.844 70.288,127.835 71.250 C 126.826 72.213,125.662 73.001,125.250 73.002 C 124.837 73.004,122.925 74.353,121.000 76.000 C 119.075 77.647,117.183 78.996,116.795 78.998 C 111.632 79.015,109.126 90.690,113.412 94.754 C 117.354 98.491,128.000 98.564,128.000 94.854 C 128.000 94.357,129.137 93.518,130.526 92.990 C 131.915 92.462,133.313 91.348,133.633 90.515 C 133.952 89.682,134.627 89.000,135.131 89.000 C 135.995 89.000,144.111 83.809,148.500 80.448 C 149.600 79.606,151.512 78.662,152.750 78.350 C 153.988 78.038,155.000 77.450,155.000 77.043 C 155.000 76.637,156.912 75.456,159.250 74.420 C 161.588 73.383,164.077 71.983,164.782 71.307 C 165.487 70.631,167.625 69.786,169.532 69.428 C 171.439 69.070,173.000 68.390,173.000 67.917 C 173.000 67.443,175.475 66.336,178.500 65.457 C 181.525 64.578,184.000 63.502,184.000 63.066 C 184.000 62.630,186.700 61.700,190.000 61.000 C 193.300 60.300,196.000 59.394,196.000 58.987 C 196.000 58.581,200.162 57.447,205.250 56.469 C 210.338 55.490,214.725 54.376,215.000 53.993 C 215.606 53.149,231.989 51.000,237.818 51.000 C 240.118 51.000,242.000 50.550,242.000 50.000 C 242.000 49.378,247.647 49.000,256.941 49.000 C 265.823 49.000,272.133 49.406,272.500 50.000 C 272.840 50.550,275.004 50.999,277.309 50.999 C 282.649 50.997,298.341 53.135,299.000 53.954 C 299.275 54.296,303.887 55.423,309.250 56.458 C 314.613 57.494,319.000 58.665,319.000 59.060 C 319.000 59.454,320.688 60.086,322.750 60.463 C 324.813 60.840,327.400 61.721,328.500 62.422 C 329.600 63.123,332.300 64.237,334.500 64.898 C 338.544 66.112,349.079 71.001,350.000 72.092 C 350.275 72.417,352.637 73.491,355.250 74.478 C 357.863 75.464,360.000 76.631,360.000 77.071 C 360.000 77.511,361.575 78.440,363.500 79.136 C 365.425 79.832,367.000 80.740,367.000 81.154 C 367.000 81.568,368.534 82.634,370.409 83.524 C 372.284 84.414,374.604 86.010,375.564 87.071 C 376.524 88.132,377.807 89.000,378.414 89.000 C 379.022 89.000,380.081 89.900,380.768 91.000 C 381.455 92.100,382.528 93.000,383.153 93.000 C 384.473 93.000,384.446 92.976,401.500 109.810 C 415.867 123.991,422.000 130.563,422.000 131.775 C 422.000 132.215,423.332 134.134,424.959 136.038 C 426.587 137.942,427.937 140.063,427.959 140.750 C 427.982 141.438,428.425 142.000,428.945 142.000 C 429.465 142.000,430.478 143.066,431.195 144.369 C 431.913 145.672,433.573 148.709,434.884 151.119 C 436.196 153.529,437.587 155.725,437.976 156.000 C 438.365 156.275,439.491 158.637,440.478 161.250 C 441.464 163.862,442.589 166.000,442.976 166.000 C 443.363 166.000,444.274 167.800,445.000 170.000 C 445.726 172.200,446.609 174.000,446.962 174.000 C 447.315 174.000,448.440 176.925,449.462 180.500 C 450.485 184.075,451.659 187.000,452.073 187.000 C 452.486 187.000,453.116 188.728,453.473 190.841 C 453.830 192.953,454.710 195.814,455.429 197.200 C 456.147 198.585,457.560 204.169,458.568 209.609 C 459.576 215.049,460.712 219.725,461.093 220.000 C 464.527 222.481,464.495 291.390,461.059 294.000 C 460.697 294.275,459.588 298.887,458.595 304.250 C 457.601 309.613,456.468 314.000,456.078 314.000 C 455.687 314.000,454.786 316.925,454.075 320.500 C 453.364 324.075,452.453 327.000,452.050 327.000 C 451.647 327.000,450.474 329.813,449.444 333.250 C 448.414 336.688,447.029 340.058,446.367 340.740 C 445.705 341.422,444.866 343.334,444.502 344.990 C 444.139 346.645,443.526 348.000,443.141 348.000 C 442.755 348.000,441.567 350.250,440.500 353.000 C 439.433 355.750,438.209 358.000,437.780 358.000 C 437.351 358.000,437.000 358.497,437.000 359.105 C 437.000 359.713,435.741 362.075,434.203 364.355 C 432.664 366.635,431.103 369.288,430.734 370.250 C 430.365 371.212,429.599 372.000,429.031 372.000 C 428.464 372.000,428.000 372.487,428.000 373.082 C 428.000 373.677,426.425 376.085,424.500 378.435 C 422.575 380.784,421.000 382.954,421.000 383.257 C 421.000 383.848,416.013 389.806,412.106 393.882 C 406.253 399.987,409.789 411.000,417.602 411.000 C 421.636 411.000,428.000 407.698,428.000 405.605 C 428.000 405.309,429.575 403.492,431.500 401.567 C 433.425 399.642,435.000 397.790,435.000 397.452 C 435.000 397.113,436.575 394.915,438.500 392.565 C 440.425 390.216,442.000 387.826,442.000 387.254 C 442.000 386.682,442.675 385.955,443.500 385.638 C 444.325 385.322,445.000 384.567,445.000 383.962 C 445.000 383.356,446.350 380.898,448.000 378.500 C 449.650 376.102,451.000 373.658,451.000 373.070 C 451.000 372.481,451.450 372.000,452.000 372.000 C 452.550 372.000,453.000 371.540,453.000 370.979 C 453.000 370.417,454.079 368.279,455.399 366.229 C 456.718 364.178,458.384 360.813,459.100 358.750 C 459.816 356.687,460.689 355.000,461.041 355.000 C 461.392 355.000,462.296 353.087,463.048 350.750 C 463.800 348.413,464.720 346.275,465.090 346.000 C 465.959 345.356,469.000 336.383,469.000 334.465 C 469.000 333.659,469.365 333.000,469.811 333.000 C 470.257 333.000,471.215 330.637,471.940 327.750 C 472.665 324.863,473.634 322.023,474.093 321.441 C 474.552 320.858,475.708 315.908,476.661 310.441 C 477.614 304.973,478.737 300.260,479.156 299.966 C 479.576 299.672,480.380 294.272,480.942 287.966 C 481.505 281.660,482.235 274.025,482.565 271.000 C 483.448 262.888,483.309 249.901,482.210 237.929 C 480.268 216.785,479.783 213.000,479.014 213.000 C 478.583 213.000,477.691 209.287,477.033 204.750 C 476.374 200.213,475.213 195.150,474.453 193.500 C 473.692 191.850,472.638 188.522,472.109 186.105 C 471.580 183.687,470.737 181.437,470.236 181.105 C 469.734 180.772,468.772 178.274,468.098 175.553 C 466.884 170.656,462.294 159.965,460.992 159.000 C 460.620 158.725,459.509 156.362,458.522 153.750 C 457.536 151.137,456.375 149.000,455.944 149.000 C 455.512 149.000,454.856 147.620,454.485 145.932 C 454.115 144.245,453.179 142.622,452.406 142.325 C 451.633 142.029,451.000 141.247,451.000 140.587 C 451.000 139.928,449.836 137.839,448.414 135.944 C 446.991 134.050,445.427 131.488,444.938 130.250 C 444.450 129.012,443.588 128.000,443.025 128.000 C 442.461 128.000,442.000 127.484,442.000 126.853 C 442.000 126.222,440.425 123.784,438.500 121.435 C 436.575 119.085,435.000 116.887,435.000 116.548 C 435.000 116.210,433.425 114.358,431.500 112.433 C 429.575 110.508,428.000 108.676,428.000 108.361 C 428.000 107.143,398.721 79.000,397.454 79.000 C 396.867 79.000,390.109 73.866,386.596 70.750 C 385.511 69.787,384.033 69.000,383.311 69.000 C 382.590 69.000,382.000 68.571,382.000 68.047 C 382.000 67.523,380.313 66.309,378.250 65.349 C 376.188 64.389,374.275 63.313,374.000 62.956 C 373.416 62.200,369.337 59.951,363.000 56.891 C 360.525 55.697,358.350 54.332,358.167 53.859 C 357.983 53.387,357.406 53.000,356.885 53.000 C 356.363 53.000,354.263 52.253,352.218 51.340 C 350.173 50.428,348.275 49.599,348.000 49.500 C 347.725 49.401,345.827 48.572,343.782 47.660 C 341.737 46.747,339.375 46.000,338.532 46.000 C 337.689 46.000,337.000 45.600,337.000 45.111 C 337.000 44.623,335.313 43.907,333.250 43.521 C 331.188 43.135,327.700 42.010,325.500 41.022 C 323.300 40.033,318.125 38.668,314.000 37.988 C 309.875 37.308,306.267 36.388,305.983 35.943 C 305.698 35.499,300.523 34.616,294.483 33.982 C 288.442 33.348,282.789 32.462,281.919 32.012 C 279.978 31.008,233.501 30.946,232.336 31.946 M91.000 104.000 C 91.000 104.550,90.325 105.000,89.500 105.000 C 88.675 105.000,88.000 105.369,88.000 105.821 C 88.000 106.273,85.979 108.860,83.509 111.571 C 77.007 118.706,76.472 119.380,74.388 123.046 C 73.350 124.874,71.825 127.154,71.000 128.113 C 67.630 132.030,66.941 133.061,65.258 136.699 C 64.291 138.790,62.938 140.860,62.250 141.300 C 61.563 141.740,61.000 142.720,61.000 143.478 C 61.000 144.237,60.407 145.452,59.681 146.179 C 58.956 146.905,57.519 149.412,56.489 151.750 C 55.458 154.088,54.305 156.000,53.926 156.000 C 53.547 156.000,52.728 158.025,52.104 160.500 C 51.481 162.975,50.613 165.000,50.175 165.000 C 49.737 165.000,48.545 167.813,47.527 171.250 C 46.508 174.688,45.323 177.736,44.894 178.024 C 44.465 178.312,43.533 180.787,42.823 183.524 C 42.114 186.261,41.301 188.725,41.017 189.000 C 40.732 189.275,40.326 190.175,40.112 191.000 C 38.002 199.162,37.029 203.930,37.016 206.167 C 37.007 207.633,36.578 208.983,36.063 209.167 C 35.548 209.350,34.610 214.450,33.978 220.500 C 33.346 226.550,32.418 232.281,31.915 233.236 C 30.722 235.501,30.722 278.499,31.915 280.764 C 32.418 281.719,33.346 287.450,33.978 293.500 C 34.610 299.550,35.548 304.650,36.063 304.833 C 36.578 305.017,37.000 306.278,37.000 307.636 C 37.000 310.865,40.058 324.355,40.936 325.000 C 41.310 325.275,42.225 328.087,42.968 331.250 C 43.711 334.413,44.612 337.000,44.970 337.000 C 45.329 337.000,46.430 339.700,47.419 343.000 C 48.407 346.300,49.519 349.000,49.890 349.000 C 50.260 349.000,51.161 351.025,51.892 353.500 C 52.623 355.975,53.560 358.000,53.975 358.000 C 54.389 358.000,55.502 360.025,56.447 362.500 C 57.392 364.975,58.548 367.000,59.015 367.000 C 59.483 367.000,60.171 367.964,60.545 369.143 C 61.137 371.006,63.874 375.722,68.248 382.415 C 68.937 383.468,70.175 385.073,71.000 385.980 C 71.825 386.888,73.350 389.126,74.388 390.954 C 75.427 392.781,77.002 395.103,77.888 396.115 C 85.047 404.278,88.734 408.552,92.889 413.500 C 94.747 415.712,104.119 424.305,111.430 430.500 C 114.027 432.700,116.955 435.225,117.938 436.112 C 118.920 436.998,121.219 438.573,123.046 439.612 C 124.874 440.650,127.112 442.175,128.020 443.000 C 128.927 443.825,130.532 445.066,131.585 445.758 C 140.214 451.428,144.623 454.000,145.716 454.000 C 146.422 454.000,147.000 454.413,147.000 454.917 C 147.000 455.422,149.025 456.608,151.500 457.553 C 153.975 458.498,156.000 459.661,156.000 460.136 C 156.000 460.611,156.464 461.000,157.032 461.000 C 157.600 461.000,159.737 461.747,161.782 462.660 C 163.827 463.572,165.725 464.376,166.000 464.445 C 166.275 464.514,167.400 465.064,168.500 465.667 C 169.600 466.270,171.963 467.077,173.750 467.461 C 175.537 467.845,177.000 468.488,177.000 468.890 C 177.000 469.293,179.363 470.215,182.250 470.940 C 185.137 471.665,187.990 472.645,188.589 473.118 C 189.188 473.591,193.238 474.673,197.589 475.524 C 201.940 476.374,206.244 477.481,207.154 477.983 C 208.063 478.486,213.688 479.408,219.654 480.034 C 225.619 480.659,231.214 481.540,232.088 481.992 C 234.119 483.044,279.911 483.016,281.960 481.962 C 282.807 481.527,288.442 480.652,294.483 480.018 C 300.523 479.384,305.698 478.494,305.983 478.042 C 306.267 477.589,309.988 476.657,314.250 475.972 C 318.513 475.286,322.000 474.412,322.000 474.029 C 322.000 473.647,322.563 473.283,323.250 473.222 C 325.625 473.011,336.502 469.593,337.000 468.901 C 337.275 468.519,339.300 467.722,341.500 467.128 C 343.700 466.535,346.400 465.427,347.500 464.667 C 348.600 463.907,351.300 462.705,353.500 461.997 C 355.700 461.289,357.725 460.389,358.000 459.997 C 358.275 459.605,360.525 458.306,363.000 457.110 C 369.868 453.792,373.445 451.774,374.035 450.884 C 374.329 450.441,376.242 449.379,378.285 448.525 C 380.328 447.672,382.000 446.529,382.000 445.987 C 382.000 445.444,382.671 445.000,383.492 445.000 C 384.312 445.000,385.545 444.100,386.232 443.000 C 386.919 441.900,387.952 441.000,388.528 441.000 C 389.104 441.000,391.134 439.668,393.038 438.041 C 394.942 436.413,397.072 435.063,397.771 435.041 C 398.471 435.018,399.555 433.875,400.182 432.500 C 400.808 431.125,401.699 430.000,402.161 430.000 C 403.438 430.000,403.162 423.748,401.750 420.704 C 399.462 415.770,388.327 414.653,385.938 419.116 C 385.383 420.152,384.274 421.000,383.473 421.000 C 382.672 421.000,381.455 421.900,380.768 423.000 C 380.081 424.100,379.094 425.000,378.574 425.000 C 378.054 425.000,376.700 425.864,375.564 426.921 C 373.412 428.924,366.481 433.079,361.750 435.204 C 360.238 435.883,359.000 436.744,359.000 437.117 C 359.000 437.885,344.570 445.000,343.012 445.000 C 342.455 445.000,342.000 445.450,342.000 446.000 C 342.000 446.550,341.372 447.000,340.605 447.000 C 339.837 447.000,336.125 448.300,332.355 449.890 C 328.585 451.479,323.925 453.111,322.000 453.515 C 320.075 453.920,318.275 454.596,318.000 455.016 C 317.725 455.437,313.450 456.605,308.500 457.612 C 303.550 458.618,299.275 459.750,298.999 460.127 C 298.724 460.504,293.099 461.346,286.499 461.999 C 279.900 462.652,273.719 463.594,272.764 464.093 C 270.342 465.358,242.000 465.272,242.000 464.000 C 242.000 463.450,239.863 463.001,237.250 463.001 C 231.354 463.003,215.677 460.898,215.000 460.014 C 214.725 459.655,210.460 458.579,205.523 457.622 C 200.585 456.666,196.310 455.525,196.023 455.087 C 195.735 454.649,193.025 453.718,190.000 453.018 C 186.975 452.318,183.825 451.205,183.000 450.545 C 182.175 449.885,179.588 448.799,177.250 448.132 C 174.912 447.465,173.000 446.538,173.000 446.071 C 173.000 445.604,171.439 444.930,169.532 444.572 C 167.625 444.214,165.487 443.369,164.782 442.693 C 164.077 442.017,161.588 440.617,159.250 439.580 C 156.912 438.544,155.000 437.399,155.000 437.035 C 155.000 436.671,153.425 435.755,151.500 435.000 C 149.575 434.245,148.000 433.344,148.000 432.999 C 148.000 432.653,146.425 431.619,144.500 430.701 C 142.575 429.783,141.000 428.575,141.000 428.016 C 141.000 427.457,140.438 426.999,139.750 426.998 C 139.063 426.996,136.925 425.647,135.000 424.000 C 133.075 422.353,131.163 421.004,130.751 421.002 C 130.339 421.001,128.148 419.200,125.881 417.000 C 123.614 414.800,121.457 413.000,121.089 413.000 C 120.275 413.000,101.000 393.564,101.000 392.743 C 101.000 392.424,99.313 390.344,97.250 388.120 C 92.569 383.074,87.000 375.425,87.000 374.042 C 87.000 373.469,86.571 373.000,86.047 373.000 C 85.523 373.000,84.346 371.425,83.433 369.500 C 82.520 367.575,81.457 366.000,81.073 366.000 C 80.688 366.000,79.755 364.425,79.000 362.500 C 78.245 360.575,77.347 359.000,77.006 359.000 C 76.664 359.000,75.542 357.087,74.511 354.750 C 73.481 352.413,72.062 349.923,71.358 349.218 C 70.654 348.513,69.786 346.375,69.428 344.468 C 69.070 342.561,68.390 341.000,67.917 341.000 C 67.443 341.000,66.336 338.525,65.457 335.500 C 64.578 332.475,63.502 330.000,63.066 330.000 C 62.630 330.000,61.700 327.300,61.000 324.000 C 60.300 320.700,59.400 318.000,59.000 318.000 C 58.601 318.000,57.502 314.112,56.558 309.360 C 55.614 304.608,54.460 299.995,53.993 299.110 C 52.924 297.083,50.997 282.051,50.999 275.750 C 50.999 273.137,50.550 271.000,50.000 271.000 C 49.381 271.000,49.000 265.667,49.000 257.000 C 49.000 248.333,49.381 243.000,50.000 243.000 C 50.550 243.000,50.999 240.863,50.999 238.250 C 50.997 231.949,52.924 216.917,53.993 214.890 C 54.460 214.005,55.614 209.392,56.558 204.640 C 57.502 199.888,58.601 196.000,59.000 196.000 C 59.400 196.000,60.300 193.300,61.000 190.000 C 61.700 186.700,62.630 184.000,63.066 184.000 C 63.502 184.000,64.578 181.525,65.457 178.500 C 66.336 175.475,67.443 173.000,67.917 173.000 C 68.390 173.000,69.070 171.439,69.428 169.532 C 69.786 167.625,70.631 165.487,71.307 164.782 C 71.983 164.077,73.383 161.588,74.420 159.250 C 75.456 156.912,76.637 155.000,77.043 155.000 C 77.450 155.000,78.058 153.906,78.393 152.570 C 78.729 151.233,79.625 149.518,80.386 148.757 C 81.146 147.997,82.687 145.573,83.811 143.370 C 84.935 141.168,86.562 138.779,87.427 138.061 C 88.292 137.343,89.000 136.360,89.000 135.878 C 89.000 135.395,89.787 134.168,90.750 133.150 C 92.521 131.279,93.045 130.654,100.720 121.264 C 105.972 114.839,106.422 110.579,102.335 105.991 C 99.645 102.973,91.000 101.454,91.000 104.000 M185.038 142.188 C 171.584 142.671,160.334 143.434,160.038 143.882 C 159.742 144.330,156.929 144.992,153.788 145.353 C 148.616 145.947,143.304 147.590,142.000 149.000 C 141.725 149.297,140.262 150.084,138.750 150.749 C 137.238 151.413,136.000 152.417,136.000 152.979 C 136.000 153.540,135.378 154.000,134.619 154.000 C 132.879 154.000,127.000 159.934,127.000 161.690 C 127.000 162.410,126.540 163.000,125.979 163.000 C 125.417 163.000,124.413 164.238,123.749 165.750 C 123.084 167.262,122.206 168.744,121.797 169.042 C 121.388 169.341,120.254 172.716,119.277 176.542 C 118.300 180.369,117.199 183.729,116.832 184.008 C 115.964 184.669,114.000 202.317,114.000 209.461 C 114.000 212.507,113.550 215.000,113.000 215.000 C 112.349 215.000,112.000 229.667,112.000 257.000 C 112.000 284.333,112.349 299.000,113.000 299.000 C 113.550 299.000,114.000 301.493,114.000 304.539 C 114.000 311.683,115.964 329.331,116.832 329.992 C 117.199 330.271,118.303 333.650,119.284 337.500 C 120.266 341.350,121.503 344.650,122.034 344.833 C 122.565 345.017,123.000 345.804,123.000 346.583 C 123.000 347.362,123.838 348.838,124.862 349.862 C 125.886 350.886,127.547 353.117,128.552 354.819 C 129.558 356.522,131.645 358.439,133.191 359.079 C 134.736 359.719,136.000 360.585,136.000 361.004 C 136.000 363.470,152.921 369.000,160.466 369.000 C 162.318 369.000,163.983 369.449,164.167 369.998 C 165.383 373.638,365.583 373.695,368.000 370.056 C 368.275 369.642,371.071 369.008,374.212 368.647 C 380.138 367.967,384.547 366.434,386.821 364.262 C 387.548 363.568,388.635 363.000,389.238 363.000 C 390.423 363.000,391.632 362.028,397.000 356.761 C 402.168 351.690,404.862 347.864,405.593 344.557 C 405.951 342.938,406.823 341.034,407.531 340.326 C 408.238 339.619,409.134 337.118,409.522 334.770 C 409.909 332.421,410.595 330.040,411.046 329.478 C 415.888 323.445,415.903 190.683,411.064 184.522 C 410.622 183.960,409.945 181.751,409.560 179.614 C 409.174 177.477,407.990 174.109,406.929 172.129 C 405.868 170.149,405.000 167.999,405.000 167.350 C 405.000 165.969,401.924 162.083,397.000 157.244 C 391.645 151.982,390.425 151.000,389.238 151.000 C 388.635 151.000,387.548 150.432,386.821 149.738 C 384.547 147.566,380.138 146.033,374.212 145.353 C 371.071 144.992,368.274 144.356,367.997 143.939 C 366.342 141.445,239.489 140.230,185.038 142.188 M336.589 162.074 C 337.191 162.574,337.899 162.768,338.162 162.505 C 339.826 160.841,376.000 165.169,376.000 167.032 C 376.000 167.490,376.850 168.135,377.889 168.465 C 383.344 170.196,389.097 179.535,391.155 190.000 C 391.858 193.575,392.734 196.725,393.100 197.000 C 396.506 199.554,396.506 314.446,393.100 317.000 C 392.734 317.275,391.858 320.425,391.155 324.000 C 389.097 334.465,383.344 343.804,377.889 345.535 C 376.850 345.865,376.000 346.510,376.000 346.968 C 376.000 348.884,338.496 353.042,335.867 351.418 C 335.484 351.181,334.992 351.524,334.774 352.179 C 334.208 353.875,193.780 353.839,193.215 352.144 C 193.003 351.508,192.471 351.209,192.034 351.479 C 189.654 352.950,152.000 348.694,152.000 346.954 C 152.000 346.503,151.077 345.842,149.949 345.484 C 147.226 344.620,142.397 339.827,141.546 337.144 C 141.171 335.965,140.517 335.000,140.092 335.000 C 139.667 335.000,138.711 332.413,137.968 329.250 C 137.225 326.087,136.268 323.258,135.842 322.962 C 131.428 319.895,131.431 194.091,135.846 191.038 C 136.274 190.742,137.191 187.912,137.884 184.750 C 138.576 181.588,139.489 179.000,139.911 179.000 C 140.333 179.000,141.225 177.801,141.893 176.335 C 143.364 173.108,147.089 169.041,148.597 169.017 C 149.200 169.008,150.675 168.149,151.874 167.110 C 153.073 166.070,155.954 164.947,158.277 164.614 C 162.930 163.947,188.706 161.956,189.808 162.178 C 190.189 162.255,191.175 162.024,192.000 161.665 C 195.903 159.967,334.523 160.359,336.589 162.074 M223.316 194.885 C 221.565 195.773,219.883 197.400,219.580 198.500 C 218.856 201.122,218.860 312.897,219.584 315.500 C 220.504 318.809,231.145 322.745,232.167 320.155 C 232.514 319.276,235.535 317.514,242.750 313.985 C 245.088 312.842,247.000 311.568,247.000 311.154 C 247.000 310.740,248.575 309.832,250.500 309.136 C 252.425 308.440,254.000 307.480,254.000 307.003 C 254.000 306.525,255.012 305.818,256.250 305.430 C 257.488 305.043,260.381 303.438,262.680 301.863 C 264.979 300.288,267.342 299.000,267.930 299.000 C 268.519 299.000,269.005 298.663,269.011 298.250 C 269.018 297.837,270.930 296.607,273.261 295.515 C 275.593 294.423,277.777 293.145,278.115 292.675 C 278.859 291.639,282.057 289.748,287.750 286.976 C 290.087 285.838,292.000 284.568,292.000 284.154 C 292.000 283.740,293.575 282.832,295.500 282.136 C 297.425 281.440,299.000 280.480,299.000 280.003 C 299.000 279.525,300.012 278.818,301.250 278.430 C 302.488 278.043,305.381 276.438,307.680 274.863 C 309.979 273.288,312.342 272.000,312.930 272.000 C 313.519 272.000,314.005 271.663,314.011 271.250 C 314.018 270.837,315.922 269.600,318.243 268.500 C 325.094 265.253,326.500 263.295,326.500 257.000 C 326.500 250.705,325.094 248.747,318.243 245.500 C 315.922 244.400,314.018 243.162,314.011 242.750 C 314.005 242.338,313.519 242.000,312.930 242.000 C 312.342 242.000,309.979 240.712,307.680 239.137 C 305.381 237.562,302.488 235.957,301.250 235.570 C 300.012 235.182,299.000 234.475,299.000 233.997 C 299.000 233.520,297.425 232.560,295.500 231.864 C 293.575 231.168,292.000 230.260,292.000 229.846 C 292.000 229.432,290.087 228.162,287.750 227.024 C 282.057 224.252,278.859 222.361,278.115 221.325 C 277.777 220.855,275.593 219.577,273.261 218.485 C 270.930 217.393,269.018 216.162,269.011 215.750 C 269.005 215.338,268.519 215.000,267.930 215.000 C 267.342 215.000,264.979 213.712,262.680 212.137 C 260.381 210.562,257.488 208.957,256.250 208.570 C 255.012 208.182,254.000 207.475,254.000 206.997 C 254.000 206.520,252.425 205.560,250.500 204.864 C 248.575 204.168,247.000 203.260,247.000 202.846 C 247.000 202.432,245.088 201.158,242.750 200.015 C 235.535 196.486,232.514 194.724,232.167 193.845 C 231.649 192.533,226.840 193.098,223.316 194.885 M241.741 223.521 C 243.418 224.357,245.342 225.707,246.017 226.521 C 246.692 227.334,247.833 228.000,248.551 228.000 C 249.269 228.000,250.549 228.691,251.394 229.536 C 252.239 230.381,254.521 231.737,256.465 232.550 C 258.409 233.362,260.000 234.380,260.000 234.813 C 260.000 235.245,261.575 236.168,263.500 236.864 C 265.425 237.560,267.000 238.520,267.000 238.997 C 267.000 239.475,268.012 240.182,269.250 240.570 C 270.488 240.957,273.381 242.562,275.680 244.137 C 277.979 245.712,280.342 247.000,280.930 247.000 C 281.519 247.000,282.000 247.382,282.000 247.848 C 282.000 248.315,283.913 249.539,286.250 250.570 C 288.587 251.600,290.832 252.968,291.237 253.610 C 291.643 254.252,293.105 255.061,294.487 255.407 C 297.763 256.230,297.664 257.306,294.150 259.070 C 285.696 263.313,282.000 265.482,282.000 266.199 C 282.000 266.640,281.519 267.000,280.930 267.000 C 280.342 267.000,277.979 268.288,275.680 269.863 C 273.381 271.438,270.488 273.043,269.250 273.430 C 268.012 273.818,267.000 274.525,267.000 275.003 C 267.000 275.480,265.425 276.440,263.500 277.136 C 261.575 277.832,260.000 278.755,260.000 279.187 C 260.000 279.620,258.409 280.638,256.465 281.450 C 254.521 282.263,252.239 283.619,251.394 284.464 C 250.549 285.309,249.269 286.000,248.551 286.000 C 247.833 286.000,246.692 286.666,246.017 287.479 C 244.977 288.733,239.433 292.000,238.346 292.000 C 238.156 292.000,238.000 276.250,238.000 257.000 C 238.000 237.750,238.156 222.000,238.346 222.000 C 238.537 222.000,240.065 222.684,241.741 223.521 " stroke="none" fill="#404040" fill-rule="evenodd"></path></g></svg>