<!DOCTYPE svg PUBLIC "-//W3C//DTD SVG 20010904//EN" "http://www.w3.org/TR/2001/REC-SVG-20010904/DTD/svg10.dtd">
<svg version="1.0" xmlns="http://www.w3.org/2000/svg" width="1200px" height="1200px" viewBox="0 0 12000 12000" preserveAspectRatio="xMidYMid meet">
<g id="layer1" fill="#848484" stroke="none">
 <path d="M5545 11989 c-1052 -85 -2023 -418 -2875 -989 -1379 -922 -2319 -2368 -2590 -3982 -60 -359 -80 -615 -80 -1018 0 -622 67 -1107 235 -1691 457 -1586 1598 -2949 3090 -3689 707 -351 1425 -546 2239 -610 166 -13 706 -13 872 0 1072 84 2038 416 2904 997 1372 920 2310 2365 2580 3975 60 359 80 615 80 1018 0 622 -67 1107 -235 1691 -457 1586 -1598 2949 -3090 3689 -707 351 -1425 546 -2239 610 -149 12 -743 11 -891 -1z m935 -395 c1213 -103 2359 -601 3274 -1424 971 -874 1609 -2060 1800 -3345 80 -537 80 -1113 0 -1650 -312 -2102 -1797 -3854 -3830 -4519 -552 -180 -1121 -269 -1724 -269 -603 0 -1172 89 -1724 269 -2033 665 -3518 2417 -3830 4519 -80 539 -80 1111 0 1650 312 2102 1797 3854 3830 4519 698 228 1454 313 2204 250z"/>
 <path d="M5635 11244 c-22 -2 -92 -9 -155 -15 -1440 -134 -2771 -878 -3671 -2054 -559 -730 -916 -1619 -1028 -2555 -35 -291 -42 -779 -16 -1073 94 -1055 481 -2020 1140 -2842 187 -234 236 -275 320 -275 133 0 231 144 181 265 -8 18 -62 90 -120 160 -776 921 -1184 2075 -1153 3260 20 738 186 1403 514 2059 698 1396 2024 2374 3563 2630 290 48 441 60 780 60 319 1 441 -7 695 -44 841 -123 1642 -462 2295 -971 114 -90 151 -109 205 -109 142 0 235 147 176 277 -26 55 -171 171 -436 348 -241 160 -358 228 -603 349 -468 230 -983 394 -1492 475 -286 46 -394 53 -780 56 -206 1 -393 1 -415 -1z"/>
 <path d="M9707 9555 c-100 -35 -153 -153 -113 -250 8 -18 62 -90 120 -160 541 -642 897 -1379 1061 -2195 272 -1360 -49 -2768 -883 -3875 -258 -342 -614 -700 -952 -956 -595 -452 -1300 -765 -2030 -903 -510 -97 -1059 -111 -1565 -40 -847 117 -1666 461 -2325 975 -114 90 -151 109 -205 109 -140 0 -234 -148 -176 -277 14 -30 45 -61 113 -115 691 -546 1542 -918 2418 -1057 307 -49 407 -56 825 -56 417 0 495 5 800 50 1349 199 2570 929 3410 2040 565 746 903 1603 1021 2586 22 183 30 751 15 958 -83 1073 -475 2070 -1142 2901 -157 196 -216 255 -265 269 -51 14 -80 13 -127 -4z"/>
 </g>
</svg>