<!DOCTYPE svg PUBLIC "-//W3C//DTD SVG 20010904//EN" "http://www.w3.org/TR/2001/REC-SVG-20010904/DTD/svg10.dtd">
<svg version="1.0" xmlns="http://www.w3.org/2000/svg" width="1200px" height="1200px" viewBox="0 0 12000 12000" preserveAspectRatio="xMidYMid meet">
<g id="layer1" fill="#a2c758" stroke="none">
 <path d="M5995 9820 c-11 -4 -33 -22 -50 -40 l-30 -31 -3 -385 -3 -384 -39 0 c-22 0 -88 -7 -148 -15 -799 -112 -1505 -649 -1821 -1387 -95 -220 -155 -447 -182 -688 -15 -135 -6 -582 16 -780 135 -1223 617 -2511 1210 -3235 108 -131 308 -324 421 -404 199 -141 424 -226 635 -238 585 -33 1176 472 1645 1407 133 267 201 421 291 665 261 710 412 1400 454 2075 32 522 -42 917 -248 1323 -117 228 -224 367 -498 644 -139 140 -178 173 -297 251 -234 153 -474 258 -728 321 -132 32 -310 61 -378 61 l-41 0 -3 378 c-3 376 -3 377 -26 410 -13 18 -36 39 -52 47 -31 16 -93 19 -125 5z m-85 -1362 l0 -243 -480 -480 -480 -480 0 -55 c0 -36 7 -66 19 -86 32 -53 120 -80 174 -53 12 6 190 178 395 382 l372 372 0 -485 0 -485 -261 -260 c-144 -143 -267 -274 -275 -292 -32 -73 -6 -156 57 -189 23 -11 48 -15 86 -12 l55 5 169 169 169 169 0 -464 c0 -404 2 -467 16 -497 45 -95 191 -99 251 -7 17 25 18 78 23 835 l5 808 290 -291 c160 -160 304 -297 322 -305 99 -43 203 23 203 129 0 21 -6 50 -14 65 -8 15 -193 205 -410 422 l-396 395 0 588 0 587 38 -5 c163 -22 213 -31 328 -60 812 -207 1419 -896 1530 -1738 22 -163 14 -537 -16 -792 -160 -1363 -764 -2784 -1408 -3318 -461 -381 -874 -356 -1325 83 -136 131 -228 242 -350 420 -547 803 -957 2121 -1003 3220 -21 512 118 973 413 1368 72 97 255 285 353 365 317 256 730 422 1138 456 9 1 12 -54 12 -241z"/>
 </g>
<g id="layer2" fill="#848484" stroke="none">
 <path d="M5545 11989 c-1052 -85 -2023 -418 -2875 -989 -1379 -922 -2319 -2368 -2590 -3982 -60 -359 -80 -615 -80 -1018 0 -622 67 -1107 235 -1691 457 -1586 1598 -2949 3090 -3689 707 -351 1425 -546 2239 -610 166 -13 706 -13 872 0 1072 84 2038 416 2904 997 1372 920 2310 2365 2580 3975 60 359 80 615 80 1018 0 622 -67 1107 -235 1691 -457 1586 -1598 2949 -3090 3689 -707 351 -1425 546 -2239 610 -149 12 -743 11 -891 -1z m935 -395 c1213 -103 2359 -601 3274 -1424 971 -874 1609 -2060 1800 -3345 80 -537 80 -1113 0 -1650 -312 -2102 -1797 -3854 -3830 -4519 -552 -180 -1121 -269 -1724 -269 -603 0 -1172 89 -1724 269 -2033 665 -3518 2417 -3830 4519 -80 539 -80 1111 0 1650 312 2102 1797 3854 3830 4519 698 228 1454 313 2204 250z"/>
 <path d="M5635 11244 c-22 -2 -92 -9 -155 -15 -1440 -134 -2771 -878 -3671 -2054 -559 -730 -916 -1619 -1028 -2555 -35 -291 -42 -779 -16 -1073 94 -1055 481 -2020 1140 -2842 187 -234 236 -275 320 -275 133 0 231 144 181 265 -8 18 -62 90 -120 160 -776 921 -1184 2075 -1153 3260 20 738 186 1403 514 2059 698 1396 2024 2374 3563 2630 290 48 441 60 780 60 319 1 441 -7 695 -44 841 -123 1642 -462 2295 -971 114 -90 151 -109 205 -109 142 0 235 147 176 277 -26 55 -171 171 -436 348 -241 160 -358 228 -603 349 -468 230 -983 394 -1492 475 -286 46 -394 53 -780 56 -206 1 -393 1 -415 -1z"/>
 <path d="M9707 9555 c-100 -35 -153 -153 -113 -250 8 -18 62 -90 120 -160 541 -642 897 -1379 1061 -2195 272 -1360 -49 -2768 -883 -3875 -258 -342 -614 -700 -952 -956 -595 -452 -1300 -765 -2030 -903 -510 -97 -1059 -111 -1565 -40 -847 117 -1666 461 -2325 975 -114 90 -151 109 -205 109 -140 0 -234 -148 -176 -277 14 -30 45 -61 113 -115 691 -546 1542 -918 2418 -1057 307 -49 407 -56 825 -56 417 0 495 5 800 50 1349 199 2570 929 3410 2040 565 746 903 1603 1021 2586 22 183 30 751 15 958 -83 1073 -475 2070 -1142 2901 -157 196 -216 255 -265 269 -51 14 -80 13 -127 -4z"/>
 </g>

</svg>