<!DOCTYPE svg PUBLIC "-//W3C//DTD SVG 20010904//EN" "http://www.w3.org/TR/2001/REC-SVG-20010904/DTD/svg10.dtd">
<svg version="1.0" xmlns="http://www.w3.org/2000/svg" width="401px" height="401px" viewBox="0 0 4010 4010" preserveAspectRatio="xMidYMid meet">
<g id="layer1" fill="#a2c758" stroke="none">
 <path d="M1236 2989 l-26 -20 0 -190 0 -189 -188 0 c-170 0 -191 -2 -205 -18 -10 -10 -17 -29 -17 -41 0 -34 410 -1533 426 -1558 16 -26 74 -32 93 -10 6 7 41 125 78 260 37 136 70 244 73 240 4 -5 19 -46 34 -92 76 -239 206 -430 340 -498 41 -21 65 -27 121 -27 108 0 187 47 282 168 87 111 152 257 229 514 3 9 17 6 54 -13 116 -59 301 -77 425 -41 153 45 304 164 378 297 198 357 -2 803 -403 897 l-70 16 0 139 c0 133 -1 139 -25 162 -29 30 -45 31 -76 6 -23 -18 -24 -26 -27 -164 l-3 -145 -37 -7 c-118 -20 -242 -84 -326 -168 l-43 -44 -24 20 c-13 10 -49 32 -79 47 -51 26 -83 36 -162 54 l-28 6 0 186 c0 183 0 185 -25 209 -13 14 -31 25 -40 25 -9 0 -27 -11 -40 -25 -25 -24 -25 -26 -25 -209 l0 -186 -27 -6 c-16 -3 -49 -12 -75 -19 -43 -11 -49 -11 -64 6 -16 17 -34 19 -211 19 l-193 0 0 194 c0 190 -1 195 -22 210 -29 21 -40 20 -72 -5z m1404 -664 c-94 -96 -106 -121 -73 -157 28 -31 64 -23 113 28 l45 45 5 -101 c5 -111 16 -130 71 -130 50 0 59 28 59 184 l0 140 48 -47 c51 -50 82 -59 114 -30 37 33 24 63 -72 158 -68 68 -90 96 -90 116 0 26 1 27 43 18 75 -16 185 -77 242 -135 68 -68 121 -173 136 -275 39 -248 -134 -499 -379 -550 -118 -24 -260 -1 -363 60 l-36 21 10 48 c5 26 10 135 11 242 1 219 -8 260 -78 366 l-35 52 46 46 c54 53 139 100 214 120 l54 13 3 -70 3 -70 -91 -92z m-1430 73 l0 -71 -70 -73 c-38 -39 -70 -78 -70 -87 0 -24 40 -67 63 -67 11 0 34 12 49 27 l28 27 0 -95 c0 -112 12 -139 64 -139 53 0 56 9 56 175 l0 152 30 -5 c37 -5 70 20 70 55 0 15 -19 44 -50 77 -28 30 -50 62 -50 74 0 22 3 22 142 22 l142 0 -56 -57 c-71 -74 -102 -123 -134 -220 -26 -76 -26 -82 -21 -263 l6 -185 -66 -249 c-46 -169 -70 -242 -75 -230 -4 11 -78 278 -163 594 -86 316 -158 583 -161 593 -5 16 6 17 130 17 l136 0 0 -72z m690 -11 l0 -72 -90 -90 c-59 -59 -90 -97 -90 -112 0 -23 43 -63 67 -63 8 0 36 21 63 46 l50 47 0 -154 c0 -180 7 -202 62 -207 46 -4 68 24 68 86 l0 43 26 -20 c15 -12 37 -21 50 -21 21 0 64 41 64 62 0 6 -31 43 -70 82 l-70 73 0 78 0 79 48 -47 c51 -50 82 -59 114 -30 37 33 24 63 -72 158 -63 63 -90 97 -90 113 0 22 3 24 38 17 57 -10 155 -62 202 -107 130 -126 164 -281 124 -570 -39 -284 -129 -538 -247 -693 -65 -85 -106 -110 -182 -110 -52 0 -66 4 -104 32 -148 109 -292 464 -330 815 -28 253 -1 383 102 495 53 58 115 100 180 124 86 30 87 30 87 -54z"/>
 </g>
<g id="layer2" fill="#848484" stroke="none">
 <path d="M1755 3994 c-343 -29 -676 -163 -980 -393 -80 -61 -264 -239 -335 -326 -237 -290 -389 -639 -425 -979 -19 -179 -19 -413 0 -586 22 -209 68 -364 170 -577 107 -222 215 -374 394 -554 262 -261 553 -430 901 -524 196 -52 540 -69 816 -40 709 75 1383 636 1617 1347 53 160 74 274 87 478 16 240 -3 503 -49 676 -148 556 -531 1028 -1043 1285 -237 119 -425 173 -673 194 -199 17 -277 17 -480 -1z m555 -159 c604 -107 1112 -493 1371 -1040 341 -722 183 -1576 -392 -2130 -500 -481 -1215 -643 -1869 -425 -564 187 -992 614 -1179 1175 -176 530 -109 1096 187 1573 189 304 498 572 821 712 173 75 393 134 576 154 86 9 393 -3 485 -19z"/>
 <path d="M1828 3759 c-689 -67 -1287 -546 -1504 -1206 -65 -197 -79 -300 -78 -558 0 -199 3 -244 23 -335 67 -313 213 -608 405 -818 44 -48 78 -54 120 -21 44 34 36 72 -32 155 -266 325 -401 751 -364 1151 15 156 33 247 78 382 182 549 634 948 1214 1072 89 20 136 23 310 23 176 0 220 -3 310 -22 232 -51 458 -149 635 -277 64 -46 99 -65 121 -65 39 0 74 36 74 77 0 38 -35 70 -171 160 -338 221 -740 321 -1141 282z"/>
 <path d="M3201 3174 c-31 -40 -26 -67 25 -126 170 -199 296 -461 355 -738 20 -90 23 -135 23 -310 0 -175 -3 -220 -23 -310 -72 -337 -232 -626 -472 -854 -548 -521 -1379 -590 -2008 -165 -52 35 -106 72 -120 81 -14 10 -35 18 -47 18 -27 0 -74 -50 -74 -80 0 -68 286 -253 530 -343 472 -175 1023 -136 1455 104 686 380 1041 1145 885 1910 -55 271 -197 564 -374 772 -52 61 -61 67 -96 67 -30 0 -43 -6 -59 -26z"/>
 </g>

</svg>